<svg width="69" height="69" viewBox="0 0 69 69" fill="none" xmlns="http://www.w3.org/2000/svg">
<path d="M45.544 13.3611C45.544 14.1896 44.8725 14.8611 44.044 14.8611H24.956C24.1276 14.8611 23.456 14.1896 23.456 13.3611V2C23.456 1.17157 24.1276 0.5 24.956 0.5H44.044C44.8725 0.5 45.544 1.17157 45.544 2V13.3611ZM26.499 9.31816C26.499 10.6989 27.6183 11.8182 28.999 11.8182H40.0011C41.3818 11.8182 42.5011 10.6989 42.5011 9.31816V6.04297C42.5011 4.66226 41.3818 3.54297 40.0011 3.54297H28.999C27.6183 3.54297 26.499 4.66226 26.499 6.04297V9.31816Z" fill="#F8DC00" stroke="#003276"/>
<path d="M34.5447 15.3611H46.044" stroke="#003276"/>
<path d="M68 54.2224C68 55.8793 66.6569 57.2224 65 57.2224H4C2.34315 57.2224 1 55.8793 1 54.2224V15.0504C1 13.3936 2.34315 12.0504 4 12.0504H65C66.6569 12.0504 68 13.3936 68 15.0504V54.2224Z" fill="#69B2F9" stroke="#003276" stroke-width="2"/>
<path d="M16.399 29.7583L16.1193 29.2181C15.3615 27.7549 13.7819 26.8323 12.0332 26.9844L16.399 29.7583ZM16.399 29.7583H17.0073M16.399 29.7583H17.0073M17.0073 29.7583H20.0751V38.2657H17.0074H16.3995L16.1196 38.8054C15.7676 39.4845 15.2354 40.0537 14.5815 40.4506C13.9276 40.8475 13.177 41.0569 12.4121 41.0557H12.4106C12.2861 41.0557 12.1607 41.0503 12.0342 41.0391L12.0331 41.039M17.0073 29.7583L12.0331 41.039M8.60848 32.9472L8.60866 32.9475C8.92329 33.6232 8.9233 34.4001 8.60872 35.0757L8.60848 32.9472ZM8.60848 32.9472C8.30726 32.301 8.17496 31.5767 8.22827 30.8539L8.60848 32.9472ZM12.0331 41.039C10.0223 40.8639 8.37837 39.1968 8.22828 37.1701L12.0331 41.039ZM53.1405 38.8054L52.8607 38.2657H52.2527H49.1855L49.1856 29.7583H52.2532H52.8613L53.1411 29.2184C53.4931 28.5391 54.0252 27.9699 54.6791 27.5729C55.333 27.1759 56.0836 26.9664 56.8486 26.9675L56.8495 26.9675C56.9753 26.9676 57.101 26.9732 57.2262 26.9843L57.2274 26.9844C59.2384 27.1599 60.8824 28.8269 61.0322 30.8538C61.0857 31.5768 60.953 32.3013 60.652 32.9473C60.4964 33.2807 60.4158 33.6441 60.4158 34.012C60.4158 34.3799 60.4965 34.7434 60.6521 35.0769C60.9534 35.7231 61.0857 36.4469 61.0322 37.1694L62.0295 37.2431L61.0322 37.1694C60.8824 39.1967 59.2383 40.8638 57.2278 41.039C55.4788 41.1911 53.8988 40.2684 53.1405 38.8054ZM8.22828 30.8537C8.37821 28.8268 10.0217 27.16 12.033 26.9844L8.22828 30.8537ZM8.22826 37.1698C8.175 36.4471 8.30764 35.7226 8.60866 35.0758L8.22826 37.1698Z" fill="white" stroke="#003276" stroke-width="2"/>
<path d="M52.8606 38.2657L53.1405 38.8054C53.8988 40.2684 55.4788 41.1911 57.2278 41.039C59.2383 40.8638 60.8823 39.1967 61.0322 37.1694C61.0856 36.447 60.9535 35.7234 60.6522 35.0773C60.4965 34.7437 60.4158 34.3801 60.4158 34.012C60.4158 33.6441 60.4964 33.2807 60.6519 32.9473L52.8606 38.2657ZM52.8606 38.2657H52.2527M52.8606 38.2657H52.2527M52.2527 38.2657H49.1854L49.1855 29.7583H52.2532H52.8613L53.1411 29.2184C53.493 28.5391 54.0251 27.9699 54.6791 27.5729C55.333 27.1759 56.0836 26.9664 56.8486 26.9675L56.8495 26.9675C56.9752 26.9676 57.101 26.9732 57.2262 26.9843L57.2273 26.9844M52.2527 38.2657L57.2273 26.9844M57.2273 26.9844C59.2384 27.1599 60.8824 28.8269 61.0322 30.8539M57.2273 26.9844L61.0322 30.8539M61.0322 30.8539C61.0856 31.5766 60.9531 32.3008 60.6522 32.9466L61.0322 30.8539Z" fill="#DCE1EA" stroke="#003276" stroke-width="2"/>
<path d="M34.5 48.5101C26.8532 48.5101 20.631 42.2875 20.631 34.6406C20.631 26.9942 26.8532 20.7716 34.5 20.7716C42.1468 20.7716 48.369 26.9942 48.369 34.6406C48.369 42.287 42.1468 48.5101 34.5 48.5101Z" fill="#F8DC00" stroke="#003276" stroke-width="2"/>
<path d="M39.834 33.119C40.1101 33.119 40.334 33.3429 40.334 33.619V35.662C40.334 35.9381 40.1101 36.162 39.834 36.162H37.5215C36.6931 36.162 36.0215 36.8336 36.0215 37.662V39.9745C36.0215 40.2506 35.7976 40.4745 35.5215 40.4745H33.4785C33.2024 40.4745 32.9785 40.2506 32.9785 39.9745V37.662C32.9785 36.8336 32.3069 36.162 31.4785 36.162H29.166C28.8899 36.162 28.666 35.9381 28.666 35.662V33.619C28.666 33.3429 28.8899 33.119 29.166 33.119H31.4785C32.3069 33.119 32.9785 32.4474 32.9785 31.619V29.3065C32.9785 29.0304 33.2024 28.8065 33.4785 28.8065H35.5215C35.7976 28.8065 36.0215 29.0304 36.0215 29.3065V31.619C36.0215 32.4474 36.6931 33.119 37.5215 33.119H39.834Z" fill="white" stroke="#003276"/>
</svg>
