<svg xmlns="http://www.w3.org/2000/svg" xmlns:xlink="http://www.w3.org/1999/xlink" width="40" height="40" viewBox="0 0 40 40">
  <defs>
    <clipPath id="clip-path">
      <circle id="Ellipse_26" data-name="Ellipse 26" cx="20" cy="20" r="20" transform="translate(1388 5025)" fill="#fff"/>
    </clipPath>
  </defs>
  <g id="Mask_Group_9" data-name="Mask Group 9" transform="translate(-1388 -5025)" clip-path="url(#clip-path)">
    <path id="facebook" d="M10.853,13.937h2.518v9.312a.75.75,0,0,0,.75.75h4.007a.75.75,0,0,0,.75-.75V13.938h2.387a.75.75,0,0,0,.744-.657l.5-4a.751.751,0,0,0-.744-.843H18.878c.113-2.471-.435-3.2,1.172-3.2,1.088-.13,2.8.421,2.8-.75V.909a.75.75,0,0,0-.648-.743A26.926,26.926,0,0,0,19.112,0c-7.01,0-5.567,7.772-5.74,8.437H10.853a.75.75,0,0,0-.75.75v4a.75.75,0,0,0,.75.75Zm.75-4h2.518a.75.75,0,0,0,.75-.75V6.037c0-2.883,1.545-4.536,4.24-4.536.878,0,1.686.043,2.242.087V3.737c-.4.205-3.976-.884-3.976,2.7V9.189a.75.75,0,0,0,.75.75h2.786l-.312,2.5H18.127a.75.75,0,0,0-.75.75V22.5H14.872V13.188a.75.75,0,0,0-.75-.75H11.6Z" transform="translate(1391.197 5033.389)" fill="#003276"/>
  </g>
</svg>
