<svg width="81" height="81" viewBox="0 0 81 81" fill="none" xmlns="http://www.w3.org/2000/svg">
<g clip-path="url(#clip0_2115_3178)">
<path d="M17.8161 31.9774C17.1752 30.8655 16.2529 29.942 15.1418 29.2997C14.0307 28.6575 12.7701 28.3192 11.4867 28.3189C9.76044 28.3169 8.08915 28.9257 6.76865 30.0376C5.44815 31.1495 4.56359 32.6927 4.27153 34.394C3.97948 36.0954 4.29876 37.8452 5.17287 39.3338C6.04698 40.8224 7.41955 41.9538 9.04763 42.5276V49.0509C9.04763 49.6978 9.3046 50.3182 9.76202 50.7756C10.2194 51.233 10.8398 51.49 11.4867 51.49C12.1336 51.49 12.754 51.233 13.2114 50.7756C13.6688 50.3182 13.9258 49.6978 13.9258 49.0509V42.5276C15.5605 41.9411 16.9342 40.7938 17.8026 39.2898L17.8002 39.2946H22.4625V31.9774H17.8161Z" fill="white"/>
<path d="M11.4867 38.0751C12.8338 38.0751 13.9258 36.9831 13.9258 35.6361C13.9258 34.289 12.8338 33.197 11.4867 33.197C10.1396 33.197 9.04763 34.289 9.04763 35.6361C9.04763 36.9831 10.1396 38.0751 11.4867 38.0751Z" fill="#A78966"/>
<path d="M77.3414 51.4997C77.021 51.5001 76.7038 51.4372 76.4078 51.3146C76.1119 51.1919 75.8431 51.0119 75.617 50.785L60.3728 35.5409C60.1399 35.3159 59.9541 35.0467 59.8262 34.7492C59.6984 34.4516 59.6311 34.1315 59.6283 33.8077C59.6255 33.4838 59.6872 33.1626 59.8098 32.8629C59.9325 32.5631 60.1136 32.2908 60.3426 32.0618C60.5716 31.8328 60.8439 31.6517 61.1437 31.529C61.4434 31.4064 61.7646 31.3447 62.0885 31.3475C62.4123 31.3503 62.7324 31.4176 63.03 31.5454C63.3275 31.6733 63.5967 31.8591 63.8217 32.092L79.0658 47.3362C79.4068 47.6773 79.639 48.1118 79.7331 48.5849C79.8272 49.058 79.7789 49.5483 79.5943 49.9939C79.4097 50.4395 79.0972 50.8204 78.6962 51.0884C78.2952 51.3564 77.8237 51.4996 77.3414 51.4997Z" fill="#A78966"/>
<path d="M49.3653 36.0945C53.2947 33.8347 55.3898 29.6652 55.3898 23.6919C55.3898 19.7796 52.9508 8.82458 52.9508 8.82458C52.9508 8.82458 49.6849 11.0136 47.6043 13.682C45.6568 12.899 43.3762 12.4832 40.7555 12.4832C38.1347 12.4832 35.8529 12.899 33.9066 13.682C31.826 11.0136 28.5601 8.82458 28.5601 8.82458C28.5601 8.82458 26.1211 19.7796 26.1211 23.6919C26.1211 29.6591 28.2114 33.8262 32.1321 36.0872C30.6955 43.0471 22.4625 45.9971 22.4625 64.9023C22.4625 66.1961 22.9764 67.4368 23.8912 68.3517C24.8061 69.2665 26.0468 69.7804 27.3406 69.7804H54.1703C55.4641 69.7804 56.7048 69.2665 57.6197 68.3517C58.5345 67.4368 59.0484 66.1961 59.0484 64.9023C59.0484 44.6947 50.6837 43.8044 49.3653 36.0945Z" fill="#FFC477"/>
<path d="M47.6043 13.682C45.6568 12.899 43.3762 12.4832 40.7555 12.4832C38.1347 12.4832 35.8529 12.899 33.9066 13.682C31.826 11.0136 28.5601 8.82458 28.5601 8.82458C28.5601 8.82458 26.1211 19.7796 26.1211 23.6919C26.1211 33.1213 31.326 38.0726 40.7555 38.0726C50.1849 38.0726 55.3898 33.1201 55.3898 23.6919C55.3898 19.7796 52.9508 8.82458 52.9508 8.82458C52.9508 8.82458 49.6849 11.0136 47.6043 13.682Z" fill="#FFC477"/>
<path d="M50.5117 67.3413C50.5117 70.0353 48.3288 69.7804 45.6336 69.7804C42.9384 69.7804 40.7555 70.0353 40.7555 67.3413C40.7555 66.0476 41.2694 64.8068 42.1842 63.892C43.0991 62.9772 44.3398 62.4632 45.6336 62.4632C46.9273 62.4632 48.1681 62.9772 49.0829 63.892C49.9978 64.8068 50.5117 66.0476 50.5117 67.3413ZM40.7555 67.3413C40.7555 70.0353 38.5725 69.7804 35.8773 69.7804C33.1822 69.7804 30.9992 70.0353 30.9992 67.3413C30.9992 66.0476 31.5132 64.8068 32.428 63.892C33.3428 62.9772 34.5836 62.4632 35.8773 62.4632C37.1711 62.4632 38.4119 62.9772 39.3267 63.892C40.2415 64.8068 40.7555 66.0476 40.7555 67.3413ZM43.1945 25.8773C43.1945 26.5241 42.9376 27.1445 42.4801 27.6019C42.0227 28.0594 41.4023 28.3163 40.7555 28.3163C40.1086 28.3163 39.4882 28.0594 39.0308 27.6019C38.5734 27.1445 38.3164 26.5241 38.3164 25.8773C38.3164 24.5309 39.4079 24.6577 40.7555 24.6577C42.1018 24.6577 43.1945 24.5309 43.1945 25.8773Z" fill="#806749"/>
<path d="M40.7555 50.2679C42.1025 50.2679 43.1945 49.1759 43.1945 47.8288C43.1945 46.4818 42.1025 45.3898 40.7555 45.3898C39.4084 45.3898 38.3164 46.4818 38.3164 47.8288C38.3164 49.1759 39.4084 50.2679 40.7555 50.2679Z" fill="#A78966"/>
<path d="M53.2654 40.0715C53.4398 39.9776 53.5447 39.9166 53.5715 39.9007C53.8446 39.7339 54.0411 39.4663 54.1187 39.1559C54.1963 38.8454 54.1488 38.5168 53.9864 38.2411C53.8239 37.9654 53.5596 37.7645 53.2505 37.6819C52.9413 37.5993 52.612 37.6415 52.3337 37.7995L52.2276 37.858C52.1057 37.4781 52.0087 37.0907 51.9373 36.6982C55.7801 34.1397 57.8289 29.7384 57.8289 23.6907C57.8289 19.6906 55.4618 9.0112 55.3618 8.55876C55.3186 8.36515 55.2289 8.18499 55.1004 8.0339C54.9719 7.88281 54.8084 7.76535 54.6243 7.69171C54.4401 7.61806 54.2407 7.59045 54.0435 7.61127C53.8462 7.63209 53.657 7.70071 53.4922 7.81119C53.3642 7.89655 50.5751 9.77951 48.4361 12.2393C46.5141 11.5917 44.3458 11.2637 41.9762 11.2637C39.6079 11.2637 37.4383 11.5917 35.5163 12.2393C33.3761 9.77951 30.5882 7.89655 30.4602 7.81119C30.2955 7.70014 30.1061 7.63105 29.9086 7.60993C29.7111 7.58881 29.5114 7.61631 29.327 7.69001C29.1425 7.76372 28.9789 7.88141 28.8504 8.03283C28.7218 8.18424 28.6322 8.3648 28.5894 8.55876C28.4882 9.0112 26.1211 19.6906 26.1211 23.6907C26.1211 29.7152 28.154 34.1043 31.9699 36.6677C31.8785 37.058 31.7651 37.4373 31.6285 37.8056L31.6175 37.7995C31.3389 37.6352 31.0064 37.5883 30.6931 37.6691C30.3799 37.75 30.1117 37.9519 29.9474 38.2306C29.783 38.5092 29.7362 38.8417 29.817 39.1549C29.8979 39.4681 30.0998 39.7364 30.3785 39.9007L30.5443 39.9946C30.0742 40.7583 29.5833 41.509 29.0723 42.2459C26.1272 46.5777 22.4625 51.9704 22.4625 64.9023C22.4625 68.2646 25.1979 71 28.5601 71H55.3898C58.7521 71 61.4875 68.2646 61.4875 64.9023C61.4875 51.3838 57.8691 46.4764 54.963 42.5312C54.3288 41.6703 53.7532 40.8812 53.2654 40.0715ZM28.5601 23.6907C28.5601 20.9029 29.8906 14.1954 30.5736 10.9332C31.6419 11.782 33.0834 13.0454 34.1627 14.4308C34.4968 14.8601 35.0761 15.0137 35.5798 14.8125C37.4139 14.0759 39.5652 13.7015 41.9738 13.7015C44.3836 13.7015 46.5336 14.0759 48.3678 14.8125C48.6134 14.9113 48.8845 14.9275 49.1402 14.8587C49.3958 14.7898 49.6221 14.6396 49.7849 14.4308C50.8617 13.0491 52.3044 11.7844 53.3739 10.9332C54.0593 14.1979 55.3898 20.9041 55.3898 23.6907C55.3898 32.4238 50.8763 36.8519 41.975 36.8519C33.0736 36.8531 28.5601 32.4238 28.5601 23.6907ZM34.1712 37.8617C36.3603 38.7983 38.9627 39.2922 41.975 39.2922C44.9543 39.2922 47.5312 38.808 49.7044 37.8922C49.7934 38.2348 49.8922 38.5666 50.0056 38.8849C48.1019 39.6397 45.2067 40.5129 41.975 40.5129C38.6774 40.5129 35.7346 39.6056 33.8346 38.8397C33.9606 38.5186 34.0729 38.1923 34.1712 37.8617ZM41.975 46.6094C42.2165 46.6091 42.4527 46.6805 42.6537 46.8146C42.8546 46.9486 43.0113 47.1393 43.1038 47.3624C43.1963 47.5855 43.2206 47.8311 43.1736 48.068C43.1265 48.3049 43.0102 48.5225 42.8394 48.6933C42.6686 48.8641 42.451 48.9804 42.2141 49.0275C41.9771 49.0745 41.7316 49.0503 41.5085 48.9577C41.2854 48.8652 41.0947 48.7085 40.9607 48.5076C40.8266 48.3066 40.7552 48.0704 40.7555 47.8289C40.7555 47.5055 40.8839 47.1953 41.1126 46.9666C41.3414 46.7379 41.6515 46.6094 41.975 46.6094ZM33.8041 68.3256C33.6761 68.2609 33.4383 68.1402 33.4383 67.3414C33.4383 65.3243 35.0798 63.6828 37.0969 63.6828C39.114 63.6828 40.7555 65.3243 40.7555 67.3414C40.7555 68.1878 40.7286 68.528 38.6627 68.5609H35.3517C34.7176 68.5463 34.1346 68.4939 33.8041 68.3256ZM48.419 68.5609H45.108C44.4726 68.5463 43.8909 68.4939 43.5592 68.3256C43.4311 68.2609 43.1933 68.1402 43.1933 67.3414C43.1933 65.3243 44.8348 63.6828 46.8519 63.6828C48.869 63.6828 50.5105 65.3243 50.5105 67.3414C50.5117 68.1878 50.4849 68.528 48.419 68.5609ZM55.3898 68.5609H52.8032C52.8983 68.2073 52.9508 67.8036 52.9508 67.3414C52.9508 63.9792 50.2154 61.2437 46.8531 61.2437C44.8506 61.2437 43.0872 62.2267 41.975 63.7206C40.8628 62.2267 39.0993 61.2437 37.0969 61.2437C33.7346 61.2437 30.9992 63.9792 30.9992 67.3414C30.9992 67.7938 31.0663 68.1914 31.1663 68.5609H28.5601C26.543 68.5609 24.9015 66.9194 24.9015 64.9023C24.9015 52.7204 28.3321 47.6728 31.0894 43.6166C31.6748 42.7544 32.2468 41.9117 32.7553 41.0398C34.6322 41.8129 37.4676 42.7239 40.7555 42.9142V44.3947C40.0442 44.6454 39.4279 45.1101 38.9912 45.7249C38.5545 46.3398 38.3188 47.0747 38.3164 47.8289C38.3164 49.846 39.9579 51.4875 41.975 51.4875C43.9921 51.4875 45.6336 49.846 45.6336 47.8289C45.6312 47.0747 45.3954 46.3398 44.9587 45.7249C44.522 45.1101 43.9058 44.6454 43.1945 44.3947V42.9142C46.3946 42.73 49.1678 41.8605 51.0446 41.1007C51.6288 42.1044 52.302 43.0325 52.9996 43.9776C55.6947 47.635 59.0484 52.1851 59.0484 64.9011C59.0475 65.8713 58.6617 66.8014 57.9759 67.4875C57.29 68.1736 56.36 68.5596 55.3898 68.5609Z" fill="#003276"/>
<path d="M45.6336 33.1945C48.3239 33.1945 50.5117 31.0054 50.5117 28.3164C50.5117 27.9929 50.3832 27.6827 50.1545 27.454C49.9258 27.2253 49.6156 27.0968 49.2922 27.0968C48.9687 27.0968 48.6585 27.2253 48.4298 27.454C48.2011 27.6827 48.0726 27.9929 48.0726 28.3164C48.0726 29.6615 46.9775 30.7554 45.6336 30.7554C45.1518 30.755 44.6809 30.612 44.2803 30.3444C43.8797 30.0768 43.5672 29.6966 43.3823 29.2517C44.0484 28.9738 44.6175 28.5052 45.018 27.9048C45.4186 27.3044 45.6327 26.599 45.6336 25.8773C45.6336 23.4346 43.347 23.4346 42.5957 23.4346L41.975 23.4382L41.3542 23.4346C40.603 23.4346 38.3164 23.4346 38.3164 25.8773C38.3164 27.3956 39.2469 28.6993 40.5676 29.2517C40.3825 29.6964 40.07 30.0764 39.6694 30.344C39.2688 30.6115 38.7981 30.7547 38.3164 30.7554C36.9712 30.7554 35.8773 29.6615 35.8773 28.3164C35.8773 27.9929 35.7488 27.6827 35.5201 27.454C35.2914 27.2253 34.9812 27.0968 34.6578 27.0968C34.3344 27.0968 34.0242 27.2253 33.7955 27.454C33.5668 27.6827 33.4383 27.9929 33.4383 28.3164C33.4383 31.0054 35.6261 33.1945 38.3164 33.1945C39.7798 33.1945 41.0811 32.5335 41.975 31.5091C42.4285 32.0357 42.9898 32.4588 43.621 32.7496C44.2523 33.0404 44.9386 33.1921 45.6336 33.1945ZM41.3542 25.8736L41.975 25.8773L42.5957 25.8736C42.8921 25.8736 43.0787 25.8834 43.1945 25.898C43.1823 26.5615 42.6409 27.0968 41.975 27.0968C41.3091 27.0968 40.7677 26.5615 40.7555 25.898C40.8725 25.8846 41.0579 25.8736 41.3542 25.8736ZM15.1453 35.636C15.1453 33.6189 13.5038 31.9774 11.4867 31.9774C9.46959 31.9774 7.8281 33.6189 7.8281 35.636C7.8281 37.6531 9.46959 39.2946 11.4867 39.2946C13.5038 39.2946 15.1453 37.6531 15.1453 35.636ZM10.2672 35.636C10.2669 35.3944 10.3383 35.1583 10.4724 34.9573C10.6064 34.7564 10.7971 34.5997 11.0202 34.5072C11.2433 34.4146 11.4889 34.3903 11.7258 34.4374C11.9627 34.4845 12.1803 34.6008 12.3511 34.7716C12.5219 34.9424 12.6382 35.16 12.6853 35.3969C12.7323 35.6338 12.7081 35.8794 12.6155 36.1025C12.523 36.3256 12.3663 36.5162 12.1654 36.6503C11.9644 36.7843 11.7282 36.8558 11.4867 36.8555C10.8135 36.8555 10.2672 36.3079 10.2672 35.636Z" fill="#003276"/>
<path d="M18.8039 63.6852H16.3648C14.3477 63.6852 12.7062 62.0437 12.7062 60.0266V52.485C13.4174 52.2341 14.0336 51.7694 14.4702 51.1546C14.9069 50.5398 15.1427 49.8049 15.1453 49.0508V43.341C16.4774 42.7007 17.6213 41.7269 18.4661 40.5141H22.4625C22.7859 40.5141 23.0961 40.3856 23.3248 40.1569C23.5535 39.9282 23.682 39.618 23.682 39.2946V31.9774C23.682 31.6539 23.5535 31.3437 23.3248 31.115C23.0961 30.8863 22.7859 30.7578 22.4625 30.7578H18.4844C17.6969 29.6314 16.6501 28.711 15.4322 28.0743C14.2143 27.4375 12.861 27.1031 11.4867 27.0992C6.78052 27.0992 2.94997 30.9286 2.94997 35.636C2.95285 37.2499 3.41249 38.8301 4.27573 40.1938C5.13897 41.5575 6.37056 42.649 7.8281 43.3422V49.0508C7.8281 50.6386 8.85129 51.9789 10.2672 52.4838V60.0266C10.2672 63.3888 13.0026 66.1243 16.3648 66.1243H18.8039C19.1273 66.1243 19.4375 65.9958 19.6662 65.7671C19.8949 65.5384 20.0234 65.2282 20.0234 64.9047C20.0234 64.5813 19.8949 64.2711 19.6662 64.0424C19.4375 63.8137 19.1273 63.6852 18.8039 63.6852ZM9.45496 41.3787C8.26764 40.9578 7.23956 40.18 6.51165 39.1519C5.78373 38.1238 5.39161 36.8957 5.38904 35.636C5.38904 32.2737 8.12445 29.5383 11.4867 29.5383C13.6489 29.5383 15.6721 30.7066 16.7612 32.5896C16.8684 32.7743 17.0223 32.9277 17.2074 33.0343C17.3926 33.1408 17.6024 33.1969 17.8161 33.1969H21.2429V38.075H17.8856C17.6583 38.0592 17.4311 38.1074 17.2298 38.2141C17.0285 38.3208 16.861 38.4817 16.7465 38.6787C16.0237 39.9322 14.8799 40.8888 13.5184 41.3787C13.2808 41.463 13.0751 41.6188 12.9296 41.8247C12.7842 42.0307 12.7061 42.2766 12.7062 42.5288V49.052C12.6922 49.366 12.5576 49.6625 12.3304 49.8798C12.1032 50.097 11.801 50.2182 11.4867 50.2182C11.1724 50.2182 10.8702 50.097 10.643 49.8798C10.4158 49.6625 10.2812 49.366 10.2672 49.052V42.5288C10.2673 42.2766 10.1892 42.0307 10.0438 41.8247C9.89832 41.6188 9.69261 41.463 9.45496 41.3787ZM79.928 46.4739L64.6839 31.2298C63.3022 29.8468 60.8924 29.8481 59.5106 31.2286C58.8651 31.8674 58.4833 32.7257 58.4411 33.6329C58.3988 34.5402 58.6992 35.4301 59.2826 36.1262L56.9667 38.4421C56.8535 38.5553 56.7636 38.6898 56.7024 38.8377C56.6411 38.9856 56.6096 39.1442 56.6096 39.3043C56.6096 39.4644 56.6411 39.623 56.7024 39.7709C56.7636 39.9189 56.8535 40.0533 56.9667 40.1665C57.0799 40.2798 57.2143 40.3696 57.3623 40.4308C57.5102 40.4921 57.6688 40.5237 57.8289 40.5237C57.989 40.5237 58.1476 40.4921 58.2955 40.4308C58.4435 40.3696 58.5779 40.2798 58.6911 40.1665L60.9826 37.875L61.6973 38.5897L59.4058 40.8812C59.2925 40.9944 59.2027 41.1288 59.1414 41.2768C59.0802 41.4247 59.0486 41.5833 59.0486 41.7434C59.0486 41.9035 59.0802 42.0621 59.1414 42.21C59.2027 42.3579 59.2925 42.4924 59.4058 42.6056C59.519 42.7188 59.6534 42.8086 59.8013 42.8699C59.9493 42.9312 60.1078 42.9627 60.268 42.9627C60.4281 42.9627 60.5866 42.9312 60.7346 42.8699C60.8825 42.8086 61.0169 42.7188 61.1302 42.6056L63.4217 40.3141L64.1363 41.0287L61.8448 43.3202C61.6161 43.5489 61.4877 43.8591 61.4877 44.1824C61.4877 44.5058 61.6161 44.816 61.8448 45.0447C62.0735 45.2733 62.3836 45.4018 62.707 45.4018C63.0304 45.4018 63.3406 45.2733 63.5692 45.0447L65.8607 42.7532L66.5754 43.4678L64.2839 45.7593C64.1707 45.8725 64.0808 46.0069 64.0196 46.1549C63.9583 46.3028 63.9267 46.4614 63.9267 46.6215C63.9267 46.7816 63.9583 46.9402 64.0196 47.0881C64.0808 47.2361 64.1707 47.3705 64.2839 47.4837C64.3971 47.5969 64.5315 47.6868 64.6795 47.748C64.8274 47.8093 64.986 47.8409 65.1461 47.8409C65.3062 47.8409 65.4648 47.8093 65.6127 47.748C65.7607 47.6868 65.8951 47.5969 66.0083 47.4837L68.2998 45.1922L69.0144 45.9069L66.7229 48.1984C66.6097 48.3116 66.5199 48.446 66.4586 48.5939C66.3973 48.7419 66.3658 48.9004 66.3658 49.0606C66.3658 49.2207 66.3973 49.3793 66.4586 49.5272C66.5199 49.6751 66.6097 49.8096 66.7229 49.9228C66.8362 50.036 66.9706 50.1258 67.1185 50.1871C67.2665 50.2484 67.425 50.2799 67.5852 50.2799C67.7453 50.2799 67.9038 50.2484 68.0518 50.1871C68.1997 50.1258 68.3341 50.036 68.4474 49.9228L70.7389 47.6313L74.7548 51.6472C75.445 52.3387 76.3646 52.7192 77.3414 52.7192C78.3183 52.7192 79.2378 52.3387 79.928 51.6484C80.6183 50.9569 81 50.0386 81 49.0606C81 48.0825 80.6183 47.1654 79.928 46.4739ZM78.2036 49.9228C77.9715 50.1448 77.6626 50.2687 77.3414 50.2687C77.0202 50.2687 76.7114 50.1448 76.4792 49.9228L61.2351 34.6786C61.0033 34.4494 60.8777 34.142 60.8777 33.8164C60.8777 33.4908 61.0033 33.1847 61.2351 32.9542C61.4655 32.7237 61.7716 32.5969 62.0973 32.5969C62.4229 32.5969 62.729 32.7237 62.9595 32.9542L78.2036 48.1996C78.3173 48.3123 78.4074 48.4464 78.4687 48.5942C78.5301 48.742 78.5614 48.9005 78.5609 49.0606C78.5616 49.2208 78.5303 49.3796 78.469 49.5276C78.4076 49.6756 78.3174 49.81 78.2036 49.9228Z" fill="#003276"/>
</g>
<defs>
<clipPath id="clip0_2115_3178">
<rect width="81" height="81" fill="white"/>
</clipPath>
</defs>
</svg>
