<svg version="1.2" xmlns="http://www.w3.org/2000/svg" viewBox="0 0 2669 1467" width="2669" height="1467">
	<title>Group 76-svg</title>
	<style>
		.s0 { fill: #003276 } 
		.s1 { opacity: .3;mix-blend-mode: multiply;fill: #003276 } 
		.s2 { opacity: .2;mix-blend-mode: multiply;fill: #003276 } 
		.s3 { mix-blend-mode: color-dodge;fill: #f8dc00 } 
	</style>
	<g id="Group_76">
		<path id="Path_261" class="s0" d="m-290 1283.3c0 0 1075.5 369.1 1535.8-148.6 460.3-517.8 390.2-887.6 1274.3-796.5 884.1 91.1 990.6-296.5 990.6-296.5 0 0-897.8-575.3-934.2-575.3-36.5 0-2752.6 350-2752.6 350z"/>
		<path id="Path_262" class="s1" d="m-60.6 1114.5c0 0 840.8 504.8 1489.8-533.9 362.2-579.6 1028.8-417.8 1481.1-245.3 359.2 137 556-412.3 556-412.3l-236.7-457.3c0 0-3200.5 119.8-3214.3 119.8-13.8 0-75.9 1529-75.9 1529z"/>
		<path id="Path_263" class="s2" d="m-181.7 862.8c0 0 352.9 798.8 1002-239.9 649-1038.6 1861.4-9.7 2433.5-361.9 572.1-352.2-145.3-1047-145.3-1047 0 0-3200.4 119.8-3214.2 119.8-13.8 0-76 1529-76 1529z"/>
		<g id="Group_109" style="opacity: .1">
			<path id="Path_284" class="s3" d="m249 239.9c11.3-1.6 24.4-4.1 37.6-5q2.9-0.1 5.7 0 2.9 0.1 5.7 0.5 2.8 0.4 5.6 1 2.8 0.6 5.5 1.4c3.5 1 6.7 2.4 9.8 4.3 3.1 1.9 5.9 4.2 8.3 6.9 2.5 2.7 4.6 5.7 6.3 8.9 1.7 3.3 3 6.8 3.8 10.4q1.2 4.5 1.9 9.2 0.6 4.6 0.8 9.3 0.1 4.7-0.4 9.4-0.4 4.6-1.4 9.2c-1.5 8.3-3.7 16.5-6.6 24.4-2.8 7.9-6.3 15.6-10.3 22.9-4 7.4-8.6 14.3-13.8 20.9-5.1 6.5-10.7 12.6-16.8 18.2q-3.8 3.5-7.9 6.6-4.2 3.1-8.6 5.7-4.4 2.7-9.1 4.8-4.7 2.2-9.5 3.8-3.9 1.2-7.8 1.8-4 0.6-8 0.7-4 0.1-8-0.4-4-0.5-7.9-1.5c-26.9-5.6-58.2-42.2-62.5-65.8-1.1-5.3-1.7-10.6-1.8-15.9 0-5.4 0.4-10.7 1.5-15.9 1-5.3 2.6-10.3 4.7-15.2 2.1-4.9 4.7-9.5 7.7-13.8q4.7-6.2 10.1-11.7 5.4-5.5 11.5-10.2 6.1-4.6 12.8-8.4 6.6-3.7 13.7-6.5c8.3-3.6 17-6.3 27.4-10z"/>
			<path id="Path_285" class="s3" d="m336.9 589.3c-6-1.5-14.7-3.1-22.9-6q-5-1.7-9.6-4.2-4.6-2.6-8.7-6-4.1-3.5-7.5-7.6-3.4-4.2-6-8.9c-3.6-6.1-6.5-12.5-8.6-19.2-2.2-6.7-3.6-13.6-4.3-20.6-0.7-7.1-0.6-14.2 0.2-21.2 0.9-7 2.5-13.9 4.8-20.5 10-28.8 30.7-43.9 59.4-47.3q6.2-0.6 12.5-0.5 6.2 0.1 12.4 0.8 6.3 0.8 12.4 2.3 6.1 1.5 12 3.6 7.9 2.7 15.7 6.1 7.7 3.4 15.1 7.5 7.5 4 14.5 8.7 7.1 4.7 13.8 10 0.8 0.7 1.5 1.3 0.8 0.6 1.5 1.3 0.7 0.6 1.4 1.3 0.7 0.7 1.4 1.4c19.5 20.3 21.3 44.1 4.7 67.3q-1.1 1.6-2.3 3.2-1.2 1.5-2.5 3-1.3 1.5-2.6 2.9-1.4 1.4-2.8 2.8c-29.3 27.3-63.9 39.3-105.5 38.5z"/>
			<path id="Path_286" class="s3" d="m327.4 791.3c-21.8-2-41.7-8.6-56-27.3-3-3.8-5.6-7.9-7.8-12.2-2.2-4.3-4-8.9-5.4-13.6-1.3-4.7-2.2-9.5-2.6-14.4-0.5-4.9-0.4-9.8 0.1-14.7q0.4-5.5 1.3-10.9 1-5.3 2.4-10.6 1.4-5.3 3.3-10.4 1.9-5 4.3-9.9c2.7-5.9 6.3-11.4 10.5-16.2 4.3-4.8 9.2-8.9 14.6-12.3 5.4-3.3 11.2-5.8 17.3-7.3 6-1.6 12.3-2.2 18.5-1.9 43.2 0.5 78.5 19.7 106.7 53.7q2.3 2.8 4.3 5.9 2 3 3.6 6.2 1.7 3.3 3 6.7 1.4 3.4 2.3 6.9c1.2 3.7 1.9 7.5 2.1 11.4 0.2 3.9-0.1 7.8-0.9 11.5-0.8 3.8-2.1 7.5-3.9 10.9-1.7 3.4-3.9 6.5-6.5 9.3q-1.5 1.9-3.2 3.6-1.7 1.7-3.4 3.3-1.8 1.5-3.7 3-1.9 1.4-3.9 2.7-10.3 6.4-21.3 11.4-11 5-22.5 8.4-11.6 3.5-23.4 5.3-11.9 1.8-23.9 1.9c-2 0-3.9-0.2-5.9-0.4z"/>
			<path id="Path_287" class="s3" d="m211.2 976.4q-8.8-3.2-17.2-7.6-8.4-4.3-16.2-9.8-7.8-5.4-14.9-11.8-7-6.4-13.3-13.7-1.1-1.3-2.1-2.6-1-1.3-1.9-2.6-1-1.3-2-2.7-0.9-1.3-1.8-2.7c-4.4-6.2-7.8-13.1-10.1-20.5-2.3-7.3-3.5-15-3.4-22.8 0.1-7.8 1.3-15.4 3.8-22.8 2.4-7.3 6-14.1 10.5-20.2q2.9-4.8 6.3-9.2 3.5-4.4 7.4-8.4 3.9-3.9 8.2-7.3 4.3-3.4 9-6.3c6.6-3.9 13.8-6.6 21.2-8.1 7.5-1.5 15.1-1.7 22.6-0.6 7.6 1 14.8 3.4 21.6 7 6.8 3.5 13 8.2 18.4 13.9q3.6 3.6 6.9 7.5 3.3 3.9 6.3 8.1 3 4.2 5.6 8.7 2.6 4.4 4.8 9.1 4.4 8.8 7.9 18 3.4 9.2 6 18.8 2.6 9.5 4.3 19.3 1.6 9.7 2.4 19.6 0.2 2.7 0.2 5.4 0 2.6-0.2 5.3-0.2 2.7-0.6 5.3-0.3 2.6-0.9 5.2c-0.7 3.8-1.9 7.5-3.6 11-1.7 3.4-3.8 6.6-6.2 9.5-2.5 2.8-5.4 5.3-8.5 7.4-3.1 2-6.5 3.6-10 4.7q-5.6 1.7-11.4 2.6-5.8 0.9-11.6 1-5.8 0-11.6-0.8-5.8-0.8-11.4-2.5c-5.5-1.3-10.9-3.3-14.4-4.4"/>
		</g>
	</g>
</svg>