<svg xmlns="http://www.w3.org/2000/svg" width="2668.801" height="1466.414" viewBox="0 0 2668.801 1466.414">
  <g id="Group_76" data-name="Group 76" transform="translate(350.4 496.485)">
    <path id="Path_261" data-name="Path 261" d="M13245.6,884.8s755.2,246.4,1078.4-99.2,273.988-592.461,894.788-531.661S15914.4,56,15914.4,56s-630.4-384-656-384S13325.6-94.4,13325.6-94.4Z" transform="translate(-13596)" fill="#003276"/>
    <path id="Path_262" data-name="Path 262" d="M13406.667,772.121s590.376,336.97,1046.133-356.364C14707.11,28.88,15175.234,136.886,15492.8,252c252.24,91.434,390.4-275.2,390.4-275.2l-166.23-305.285s-2247.274,80-2256.971,80S13406.667,772.121,13406.667,772.121Z" transform="translate(-13596)" fill="#003276" opacity="0.3" style="mix-blend-mode: multiply;isolation: isolate"/>
    <path id="Path_263" data-name="Path 263" d="M13406.667,772.121S13654.443,1305.333,14110.2,612s1307.107-6.479,1708.8-241.6-102.03-698.885-102.03-698.885-2247.274,80-2256.971,80S13406.667,772.121,13406.667,772.121Z" transform="translate(-13681 -168)" fill="#003276" opacity="0.2" style="mix-blend-mode: multiply;isolation: isolate"/>
    <g id="Group_109" data-name="Group 109" transform="translate(174.829 -84.208) rotate(60)" opacity="0.1" style="mix-blend-mode: color-dodge;isolation: isolate">
      <path id="Path_284" data-name="Path 284" d="M24.2,45.351c3.064-7.389,6.218-16.184,10.352-24.5a47.838,47.838,0,0,1,9.58-12.72A27.742,27.742,0,0,1,71.661,1.15a51.18,51.18,0,0,1,21.75,11.826A103.129,103.129,0,0,1,126.673,70.7a69.462,69.462,0,0,1-.252,28.35,42.926,42.926,0,0,1-10.8,19.479c-12.662,14.5-44.827,21.322-59.97,16a49.053,49.053,0,0,1-30.869-27.615,76.921,76.921,0,0,1-4.391-41.494C21.234,59.151,22.732,52.963,24.2,45.351Z" transform="translate(138.43 217.972)" fill="#f8dc00"/>
      <path id="Path_285" data-name="Path 285" d="M133.96,108.406c-3.019,3.157-6.961,7.914-11.55,11.94a39.658,39.658,0,0,1-26.628,10.432,62.5,62.5,0,0,1-49.873-22.414c-13.111-15.672-14.6-33.333-6.495-51.9a83.472,83.472,0,0,1,20.911-27.9A140.425,140.425,0,0,1,99.787,3.4a37.6,37.6,0,0,1,5.059-1.738c18.631-5.117,32.963,1.746,40.57,19.55a52.775,52.775,0,0,1,3.291,10.176C154.164,58.349,148.979,83.382,133.96,108.406Z" transform="translate(261.568 218.107)" fill="#f8dc00"/>
      <path id="Path_286" data-name="Path 286" d="M147.272,110.773c-8.816,12.569-19.655,22.459-35.478,24.9a48.845,48.845,0,0,1-37.245-8.766,74.454,74.454,0,0,1-20.206-20.792,45.112,45.112,0,0,1-.348-49.651C69.427,30.384,92.907,15.288,122.478,9.532a45.339,45.339,0,0,1,19.5.537,28.308,28.308,0,0,1,21.674,19.979,42.844,42.844,0,0,1,2.263,12.82,127.555,127.555,0,0,1-16.335,64.441C148.892,108.506,148.044,109.623,147.272,110.773Z" transform="translate(361.675 288.967)" fill="#f8dc00"/>
      <path id="Path_287" data-name="Path 287" d="M164.772,109.507a103.916,103.916,0,0,1-46.456,23.165,73.993,73.993,0,0,1-8.816,1.214,47.405,47.405,0,0,1-49.659-29.295,63.355,63.355,0,0,1-7.137-29.2A49.036,49.036,0,0,1,89.136,28.522a80.258,80.258,0,0,1,27.623-3.249,132.362,132.362,0,0,1,51,12.8,46.845,46.845,0,0,1,11.726,7.976,28.419,28.419,0,0,1,8.9,28.1A58.638,58.638,0,0,1,172.4,102.2c-2.7,2.9-5.713,5.491-7.611,7.3" transform="translate(410.367 422.619)" fill="#f8dc00"/>
    </g>
  </g>
</svg>
