<svg width="64" height="64" viewBox="0 0 64 64" fill="none" xmlns="http://www.w3.org/2000/svg">
<path d="M0.277161 62.3995C0.277161 62.543 0.305415 62.685 0.36031 62.8176C0.415205 62.9501 0.495667 63.0705 0.5971 63.1719C0.698533 63.2734 0.818952 63.3538 0.951481 63.4087C1.08401 63.4636 1.22605 63.4919 1.3695 63.4919H62.3365C62.4799 63.4919 62.622 63.4637 62.7545 63.4088C62.8871 63.3539 63.0075 63.2734 63.109 63.172C63.2104 63.0706 63.2909 62.9501 63.3458 62.8176C63.4007 62.6851 63.429 62.543 63.429 62.3995V4.16347C63.4289 3.14947 63.0261 2.17701 62.3091 1.46001C61.592 0.743012 60.6196 0.34021 59.6056 0.34021H4.10055C3.08657 0.340279 2.11413 0.743104 1.39713 1.46009C0.680123 2.17707 0.277265 3.14949 0.277161 4.16347V62.3995Z" fill="#003276"/>
<path d="M41.6769 61.3072H22.0292V36.8244C22.0292 35.9195 22.7627 35.1858 23.6678 35.1858H40.0383C40.9432 35.1858 41.6769 35.9195 41.6769 36.8244V61.3072Z" fill="#EBEBEB"/>
<path d="M22.0292 59.0004H41.6769V61.3072H22.0292V59.0004Z" fill="#DADADA"/>
<path d="M22.0292 38.8418V36.8244C22.0292 35.9195 22.7627 35.1858 23.6678 35.1858H40.0383C40.9432 35.1858 41.6769 35.9195 41.6769 36.8244V38.8418C41.6769 38.0967 40.9432 37.4926 40.0383 37.4926H23.6678C22.7627 37.4926 22.0292 38.0967 22.0292 38.8418Z" fill="white"/>
<path d="M61.2441 54.8965H43.8616V61.3073H61.2441V54.8965ZM19.8444 61.3073V54.8965H2.46198V61.3073H19.8444Z" fill="#666666"/>
<path d="M45.4683 54.8965H43.8616V61.3073H45.4683V54.8965ZM19.8444 61.3073V54.8965H18.3715V61.3073H19.8444Z" fill="#5D5D5D"/>
<path d="M61.2441 52.7116V4.16348C61.2442 3.94829 61.2018 3.73521 61.1195 3.5364C61.0371 3.33759 60.9164 3.15695 60.7643 3.00479C60.6121 2.85263 60.4315 2.73194 60.2326 2.6496C60.0338 2.56726 59.8208 2.52489 59.6056 2.5249H4.10055C3.88537 2.52489 3.67228 2.56726 3.47348 2.6496C3.27467 2.73194 3.09402 2.85263 2.94186 3.00479C2.78971 3.15695 2.66901 3.33759 2.58667 3.5364C2.50433 3.73521 2.46196 3.94829 2.46198 4.16348V52.7116H19.8444V36.8244C19.8444 34.7128 21.5562 33.0011 23.6678 33.0011H40.0383C42.1499 33.0011 43.8616 34.7128 43.8616 36.8244V52.7116H61.2441Z" fill="#F3F3F3"/>
<path d="M16.6083 34.0934C16.6083 33.8037 16.4932 33.5259 16.2884 33.321C16.0835 33.1162 15.8057 33.0011 15.516 33.0011H10.0792C9.78945 33.0011 9.51161 33.1162 9.30676 33.321C9.1019 33.5259 8.98682 33.8037 8.98682 34.0934V38.5106C8.98682 38.8004 9.1019 39.0782 9.30676 39.2831C9.51161 39.4879 9.78945 39.603 10.0792 39.603H15.516C15.8057 39.603 16.0835 39.4879 16.2884 39.2831C16.4932 39.0782 16.6083 38.8004 16.6083 38.5106V34.0934ZM54.8965 34.0934C54.8965 33.95 54.8682 33.8079 54.8133 33.6754C54.7584 33.5429 54.6779 33.4224 54.5765 33.321C54.475 33.2196 54.3546 33.1391 54.222 33.0842C54.0895 33.0293 53.9474 33.0011 53.804 33.0011H48.1902C48.0468 33.0011 47.9047 33.0293 47.7722 33.0842C47.6396 33.1391 47.5192 33.2196 47.4177 33.321C47.3163 33.4224 47.2358 33.5429 47.1809 33.6754C47.126 33.8079 47.0978 33.95 47.0978 34.0934V38.5106C47.0978 38.6541 47.126 38.7962 47.1809 38.9287C47.2358 39.0612 47.3163 39.1817 47.4177 39.2831C47.5192 39.3845 47.6396 39.465 47.7722 39.5199C47.9047 39.5748 48.0468 39.603 48.1902 39.603H53.804C53.9474 39.603 54.0895 39.5748 54.222 39.5199C54.3546 39.465 54.475 39.3845 54.5765 39.2831C54.6779 39.1817 54.7584 39.0612 54.8133 38.9287C54.8682 38.7962 54.8965 38.6541 54.8965 38.5106V34.0934Z" fill="#003276"/>
<path d="M14.4236 35.1858V37.4182H11.1714V35.1858H14.4236ZM52.7116 35.1858V37.4182H49.2825V35.1858H52.7116Z" fill="#B3F4FB"/>
<path d="M19.8811 21.0291C19.8811 20.7394 19.766 20.4615 19.5611 20.2566C19.3563 20.0517 19.0784 19.9366 18.7887 19.9366H10.0792C9.9357 19.9366 9.79364 19.9649 9.66111 20.0198C9.52857 20.0747 9.40814 20.1552 9.30671 20.2566C9.20527 20.3581 9.12482 20.4785 9.06993 20.6111C9.01504 20.7436 8.9868 20.8857 8.98682 21.0291V27.5613C8.98682 27.851 9.1019 28.1288 9.30676 28.3337C9.51161 28.5385 9.78945 28.6536 10.0792 28.6536H18.7887C18.9321 28.6536 19.0742 28.6254 19.2067 28.5705C19.3393 28.5156 19.4597 28.4352 19.5611 28.3337C19.6626 28.2323 19.7431 28.1119 19.798 27.9793C19.8529 27.8468 19.8811 27.7047 19.8811 27.5613V21.0291ZM37.3003 21.0291C37.3003 20.8857 37.272 20.7436 37.2171 20.6111C37.1623 20.4785 37.0818 20.3581 36.9804 20.2566C36.8789 20.1552 36.7585 20.0747 36.626 20.0198C36.4934 19.9649 36.3514 19.9366 36.2079 19.9366H27.4983C27.3548 19.9366 27.2128 19.9649 27.0802 20.0198C26.9477 20.0747 26.8273 20.1552 26.7258 20.2566C26.6244 20.3581 26.5439 20.4785 26.4891 20.6111C26.4342 20.7436 26.4059 20.8857 26.4059 21.0291V27.5613C26.4059 27.851 26.521 28.1288 26.7259 28.3337C26.9307 28.5385 27.2086 28.6536 27.4983 28.6536H36.2079C36.4976 28.6536 36.7755 28.5385 36.9803 28.3337C37.1852 28.1288 37.3003 27.851 37.3003 27.5613V21.0291ZM54.7194 21.0291C54.7194 20.8857 54.6912 20.7436 54.6363 20.6111C54.5814 20.4785 54.5009 20.3581 54.3995 20.2566C54.298 20.1552 54.1776 20.0747 54.0451 20.0198C53.9125 19.9649 53.7705 19.9366 53.627 19.9366H44.9174C44.7739 19.9366 44.6319 19.9649 44.4994 20.0198C44.3668 20.0747 44.2464 20.1552 44.145 20.2566C44.0435 20.3581 43.9631 20.4785 43.9082 20.6111C43.8533 20.7436 43.8251 20.8857 43.8251 21.0291V27.5613C43.8251 27.7047 43.8533 27.8468 43.9082 27.9793C43.9631 28.1118 44.0436 28.2322 44.145 28.3337C44.2464 28.4351 44.3669 28.5156 44.4994 28.5705C44.6319 28.6254 44.774 28.6536 44.9174 28.6536H53.627C53.9167 28.6536 54.1946 28.5385 54.3994 28.3337C54.6043 28.1288 54.7194 27.851 54.7194 27.5613V21.0291Z" fill="#003276"/>
<path d="M52.5345 22.1215V26.4688H46.0098V22.1215H52.5345ZM35.1154 22.1215V26.4688H28.5906V22.1215H35.1154ZM17.6963 22.1215V26.4688H11.1714V22.1215H17.6963Z" fill="#B3F4FB"/>
<path d="M19.8811 7.96466C19.8811 7.8212 19.8529 7.67914 19.798 7.54661C19.7431 7.41407 19.6626 7.29364 19.5611 7.19221C19.4597 7.09077 19.3393 7.01031 19.2067 6.95543C19.0742 6.90054 18.9321 6.8723 18.7887 6.87231H10.0792C9.78945 6.87231 9.51161 6.9874 9.30676 7.19225C9.1019 7.39711 8.98682 7.67495 8.98682 7.96466V14.4968C8.9868 14.6403 9.01504 14.7823 9.06993 14.9149C9.12482 15.0474 9.20527 15.1678 9.30671 15.2693C9.40814 15.3707 9.52857 15.4512 9.66111 15.5061C9.79364 15.561 9.9357 15.5893 10.0792 15.5893H18.7887C19.0784 15.5893 19.3563 15.4742 19.5611 15.2693C19.766 15.0644 19.8811 14.7865 19.8811 14.4968V7.96466ZM37.3003 7.96466C37.3003 7.82121 37.272 7.67916 37.2171 7.54664C37.1622 7.41411 37.0817 7.29369 36.9803 7.19225C36.8789 7.09082 36.7585 7.01036 36.6259 6.95546C36.4934 6.90057 36.3514 6.87231 36.2079 6.87231H27.4983C27.2086 6.87231 26.9307 6.9874 26.7259 7.19225C26.521 7.39711 26.4059 7.67495 26.4059 7.96466V14.4968C26.4059 14.6403 26.4342 14.7823 26.4891 14.9149C26.5439 15.0474 26.6244 15.1678 26.7258 15.2693C26.8273 15.3707 26.9477 15.4512 27.0802 15.5061C27.2128 15.561 27.3548 15.5893 27.4983 15.5893H36.2079C36.3514 15.5893 36.4934 15.561 36.626 15.5061C36.7585 15.4512 36.8789 15.3707 36.9804 15.2693C37.0818 15.1678 37.1623 15.0474 37.2171 14.9149C37.272 14.7823 37.3003 14.6403 37.3003 14.4968V7.96466ZM54.7194 7.96466C54.7194 7.67495 54.6043 7.39711 54.3994 7.19225C54.1946 6.9874 53.9167 6.87231 53.627 6.87231H44.9174C44.774 6.87231 44.6319 6.90057 44.4994 6.95546C44.3669 7.01036 44.2464 7.09082 44.145 7.19225C44.0436 7.29369 43.9631 7.41411 43.9082 7.54664C43.8533 7.67916 43.8251 7.82121 43.8251 7.96466V14.4968C43.8251 14.6403 43.8533 14.7823 43.9082 14.9149C43.9631 15.0474 44.0435 15.1678 44.145 15.2693C44.2464 15.3707 44.3668 15.4512 44.4994 15.5061C44.6319 15.561 44.7739 15.5893 44.9174 15.5893H53.627C53.7705 15.5893 53.9125 15.561 54.0451 15.5061C54.1776 15.4512 54.298 15.3707 54.3995 15.2693C54.5009 15.1678 54.5814 15.0474 54.6363 14.9149C54.6912 14.7823 54.7194 14.6403 54.7194 14.4968V7.96466Z" fill="#003276"/>
<path d="M52.5345 9.05714V13.4045H46.0098V9.05701L52.5345 9.05714ZM35.1154 9.05714V13.4045H28.5906V9.05701L35.1154 9.05714ZM17.6963 9.05714V13.4045H11.1714V9.05701L17.6963 9.05714Z" fill="#B3F4FB"/>
<path d="M11.1714 35.1858L14.4236 37.4182H11.1714V35.1858ZM49.2825 35.1858L52.7116 37.4182H49.2825V35.1858ZM46.0098 22.1214L52.5345 26.4688H46.0098V22.1214ZM28.5906 22.1214L35.1154 26.4688H28.5906V22.1214ZM11.1714 22.1214L17.6963 26.4688H11.1714V22.1214ZM46.0098 9.05701L52.5345 13.4045H46.0098V9.05701ZM28.5906 9.05701L35.1154 13.4045H28.5906V9.05701ZM11.1714 9.05701L17.6963 13.4045H11.1714V9.05701Z" fill="#97E8F1"/>
<path d="M28.8875 50.4842C28.5508 51.1762 28.56 52.0201 28.9116 52.7025C29.2632 53.385 29.9046 53.8039 30.5979 53.8039H33.3679C34.0612 53.8039 34.7027 53.385 35.0543 52.7025C35.4059 52.0201 35.4149 51.1762 35.0783 50.4842L33.6932 47.6369C33.3482 46.9275 32.6934 46.4875 31.9829 46.4875C31.2723 46.4875 30.6175 46.9275 30.2725 47.6369L28.8875 50.4842ZM36.3164 44.6034C37.1829 44.6034 37.8864 45.4477 37.8864 46.4875C37.8864 47.5274 37.1829 48.3716 36.3164 48.3716C35.4498 48.3716 34.7462 47.5274 34.7462 46.4875C34.7462 45.4477 35.4498 44.6034 36.3164 44.6034ZM27.6494 44.6034C28.516 44.6034 29.2195 45.4477 29.2195 46.4875C29.2195 47.5274 28.516 48.3716 27.6494 48.3716C26.7829 48.3716 26.0793 47.5274 26.0793 46.4875C26.0793 45.4477 26.7829 44.6034 27.6494 44.6034ZM31.9829 41.84C32.8494 41.84 33.553 42.6843 33.553 43.7242C33.553 44.764 32.8494 45.6083 31.9829 45.6083C31.1163 45.6083 30.4128 44.764 30.4128 43.7242C30.4128 42.6843 31.1163 41.84 31.9829 41.84Z" fill="#003276"/>
<path d="M19.8444 49.9087H2.46198V52.7116H19.8444V49.9087ZM61.2441 49.9087H43.8616V52.7116H61.2441V49.9087Z" fill="#DADADA"/>
<path d="M2.46198 7.20677C2.46201 6.77221 2.63466 6.35545 2.94194 6.04816C3.24923 5.74088 3.66598 5.56823 4.10055 5.5682H59.6056C60.0401 5.56823 60.4569 5.74088 60.7642 6.04816C61.0715 6.35545 61.2441 6.77221 61.2441 7.20677V4.16348C61.2442 3.94829 61.2018 3.73521 61.1195 3.5364C61.0371 3.33759 60.9164 3.15695 60.7643 3.00479C60.6121 2.85263 60.4315 2.73194 60.2326 2.6496C60.0338 2.56726 59.8208 2.52489 59.6056 2.5249H4.10055C3.88537 2.52489 3.67228 2.56726 3.47348 2.6496C3.27467 2.73194 3.09402 2.85263 2.94186 3.00479C2.78971 3.15695 2.66901 3.33759 2.58667 3.5364C2.50433 3.73521 2.46196 3.94829 2.46198 4.16348V7.20677Z" fill="white"/>
</svg>
