<svg xmlns="http://www.w3.org/2000/svg" xmlns:xlink="http://www.w3.org/1999/xlink" width="40" height="40" viewBox="0 0 40 40">
  <defs>
    <clipPath id="clip-path">
      <circle id="Ellipse_27" data-name="Ellipse 27" cx="20" cy="20" r="20" transform="translate(1588 5025)" fill="#fff"/>
    </clipPath>
  </defs>
  <g id="Mask_Group_11" data-name="Mask Group 11" transform="translate(-1588 -5025)" clip-path="url(#clip-path)">
    <g id="instagram" transform="translate(1595.8 5032.8)">
      <path id="Path_264" data-name="Path 264" d="M4.75,24h14.5A4.756,4.756,0,0,0,24,19.25V4.75A4.756,4.756,0,0,0,19.25,0H4.75A4.756,4.756,0,0,0,0,4.75v14.5A4.756,4.756,0,0,0,4.75,24ZM1.5,4.75A3.254,3.254,0,0,1,4.75,1.5h14.5A3.254,3.254,0,0,1,22.5,4.75v14.5a3.254,3.254,0,0,1-3.25,3.25H4.75A3.254,3.254,0,0,1,1.5,19.25Z" fill="#003276"/>
      <path id="Path_265" data-name="Path 265" d="M15.326,20.869a5.543,5.543,0,1,0-5.543-5.543A5.549,5.549,0,0,0,15.326,20.869Zm0-9.729a4.187,4.187,0,1,1-4.187,4.187A4.191,4.191,0,0,1,15.326,11.14Z" transform="translate(-3.326 -3.326)" fill="#003276"/>
      <path id="Path_266" data-name="Path 266" d="M29.617,10.32a1.893,1.893,0,1,0-1.9-1.893,1.856,1.856,0,0,0,1.9,1.893Zm.195-2.075c.348.307-.446.68-.446.183C29.367,8.131,29.77,8.208,29.812,8.245Z" transform="translate(-11.367 -2.679)" fill="#003276"/>
    </g>
  </g>
</svg>
