<svg width="68" height="82" viewBox="0 0 68 82" fill="none" xmlns="http://www.w3.org/2000/svg">
<path d="M44.9554 81.5679C43.3169 81.5679 43.2099 78.72 43.3477 76.043C42.7377 76.093 42.1323 76.1885 41.5366 76.3287C41.209 78.0277 41.008 79.7486 40.9353 81.4774C40.9279 81.7029 40.2817 81.7102 40.2665 81.4774C40.2532 79.831 40.3992 78.1872 40.7024 76.5689C40.3656 76.6819 40.02 76.8173 39.6657 76.975C39.4852 77.0668 39.3276 76.5689 39.8683 76.3135C40.1736 76.1717 40.4895 76.0539 40.8131 75.9612C41.3615 73.2103 42.271 70.6922 43.406 70.6922C44.4584 70.6922 44.4653 73.0146 44.4134 75.4729C44.5714 75.4729 44.6839 75.473 44.7349 75.4803C45.0564 75.5327 44.9985 75.9911 44.773 75.9911C44.6674 75.9911 44.5401 75.9911 44.4056 75.9989C44.3527 78.5849 44.3137 81.1549 45.4354 81.1549C45.6306 81.1549 45.6756 81.5683 44.954 81.5683M43.3753 75.5097C43.5034 73.3371 43.7363 71.406 43.3449 71.406C42.774 71.406 42.1199 73.3752 41.6454 75.7499C42.2163 75.6357 42.7935 75.5555 43.3739 75.5097" fill="#F8DC00"/>
<path d="M46.4648 79.5454C46.5107 80.4852 46.5626 81.2909 46.5847 81.6877C46.6072 82.0332 46.0362 82.1085 45.9237 81.8306C45.7156 81.0944 45.5822 80.3391 45.5254 79.5762C45.326 79.5532 45.1377 79.4723 44.9839 79.3433C44.8185 79.2152 44.9917 78.8918 45.209 79.0218C45.2979 79.0664 45.3911 79.1016 45.4873 79.127C45.3775 78.0077 45.3648 76.881 45.4492 75.7596C45.4722 75.4895 46.5318 75.376 46.4937 75.7444C46.4478 76.1656 46.4262 76.6842 46.4189 77.2253C46.6967 76.1427 47.1928 74.9479 48.0646 74.9479C49.3728 74.9479 48.8244 79.0218 46.4643 79.5477M47.7647 75.3613C47.1928 75.3613 46.5994 78.1426 46.4414 78.8491C46.4414 78.9166 46.4492 78.9841 46.4492 79.0516C47.9296 78.4127 48.433 75.3609 47.7647 75.3609" fill="#F8DC00"/>
<path d="M50.3865 79.5454C50.4325 80.4852 50.4844 81.2909 50.5064 81.6877C50.5289 82.0332 49.958 82.1085 49.8454 81.8306C49.6374 81.0944 49.5039 80.3391 49.4472 79.5762C49.2478 79.5532 49.0595 79.4723 48.9056 79.3433C48.7403 79.2152 48.9135 78.8918 49.1312 79.0218C49.2201 79.0664 49.3134 79.1016 49.4095 79.127C49.2997 78.0077 49.287 76.881 49.3714 75.7596C49.3944 75.4895 50.4541 75.376 50.4159 75.7444C50.37 76.1656 50.3484 76.6842 50.3411 77.2253C50.619 76.1427 51.115 74.9479 51.9869 74.9479C53.295 74.9479 52.7466 79.0218 50.3865 79.5477M51.6869 75.3613C51.1155 75.3613 50.5216 78.1426 50.3636 78.8491C50.3636 78.9166 50.3714 78.9841 50.3714 79.0516C51.8518 78.4127 52.3552 75.3609 51.6869 75.3609" fill="#F8DC00"/>
<path d="M44.2342 60.4909C44.1341 61.2258 42.9642 70.2141 39.623 70.2141C37.4182 70.2141 37.0167 65.9041 37.1169 61.9612C35.8473 67.007 35.0113 71.5852 32.7399 71.5852C27.9628 71.5852 29.3982 54.4773 35.4793 54.4773C36.6488 54.4773 37.3167 55.345 37.7181 56.3477C38.3865 55.3119 41.2274 55.9802 40.9927 56.8153C40.6923 57.7519 39.4893 67.3083 40.5251 67.3083C41.661 67.3083 42.5636 61.6585 42.8645 60.4914C43.0983 59.6218 44.3344 59.7224 44.2342 60.4914M37.3176 58.8878C37.2175 57.9513 36.9837 57.0505 36.3815 57.0505C34.7113 57.0505 32.84 67.1751 34.0765 67.1751C34.7113 67.1751 36.3484 62.0306 37.3176 58.8892" fill="white"/>
<path d="M57.9669 74.4904C53.4893 74.4904 51.6515 70.3137 51.1169 66.0034C50.1141 68.142 48.6778 70.0455 46.9406 70.0455C41.7612 70.0455 41.1934 58.9186 45.8713 53.3046C46.6062 52.369 50.1817 53.7722 49.5459 54.8751C47.8087 57.9485 46.3719 66.9041 47.8758 66.9041C49.7467 66.9041 51.0163 60.321 51.4182 58.4836C51.6515 57.3812 55.695 57.5815 55.6275 58.6844C55.4943 61.1239 54.8926 72.6182 57.9669 72.6182C61.9764 72.6182 61.0072 59.6871 56.7644 53.7061C56.3629 53.1714 57.633 51.9023 58.3008 52.4025C64.7163 57.2145 64.9152 74.4891 57.9669 74.4891" fill="white"/>
<path d="M19.8322 4.96214C20.1675 4.15372 20.5125 3.19141 20.9649 2.28147C21.2341 1.76223 21.5884 1.29179 22.0131 0.889697C22.3997 0.502822 22.8837 0.227614 23.4139 0.0931534C23.944 -0.0413075 24.5007 -0.0300225 25.025 0.125829C25.9122 0.355865 26.7294 0.800188 27.4048 1.41978C29.2832 3.06442 30.5631 5.28566 31.0441 7.7356C31.2482 8.76046 31.2389 9.81641 31.0165 10.8375C30.8171 11.6395 30.4096 12.3747 29.8351 12.9688C28.4497 14.5558 24.9303 15.3017 23.2735 14.7198C22.5242 14.493 21.8337 14.105 21.2502 13.583C20.6668 13.0611 20.2046 12.4178 19.8961 11.6983C19.3206 10.2581 19.1544 8.68692 19.4156 7.15821C19.5075 6.47197 19.6714 5.79537 19.8322 4.9626" fill="#F8DC00"/>
<path d="M45.3142 11.876C44.9839 12.2214 44.5526 12.7419 44.0505 13.1824C43.2551 13.9119 42.2163 14.3189 41.137 14.3238C40.1011 14.3552 39.0715 14.1508 38.1262 13.7259C37.1808 13.3011 36.3444 12.667 35.6801 11.8714C34.2456 10.1567 34.083 8.22431 34.9695 6.19268C35.5088 5.0254 36.2884 3.98514 37.2575 3.13996C38.5326 1.98732 39.9921 1.05682 41.5752 0.387183C41.7549 0.310748 41.9399 0.247199 42.1287 0.197018C44.1672 -0.362908 45.7354 0.388093 46.5677 2.33612C46.7251 2.69411 46.8458 3.06717 46.9278 3.44955C47.5249 6.39893 46.9572 9.13747 45.3137 11.8756" fill="#F8DC00"/>
<path d="M57.7239 19.8882C56.7593 21.2634 55.5733 22.3456 53.8421 22.6129C53.1332 22.7356 52.4069 22.7138 51.7067 22.549C51.0064 22.3842 50.3466 22.0798 49.7669 21.6538C48.888 21.0477 48.1368 20.2747 47.5561 19.3788C47.019 18.5763 46.7291 17.6338 46.7224 16.6682C46.7156 15.7026 46.9922 14.7562 47.518 13.9462C49.2065 11.0924 51.7756 9.44064 55.0111 8.8109C55.7183 8.67538 56.4465 8.69544 57.1452 8.86969C57.7031 8.98109 58.2196 9.24401 58.6379 9.62962C59.0563 10.0152 59.3603 10.5086 59.5167 11.0557C59.6702 11.5079 59.7537 11.981 59.7643 12.4585C59.8022 14.9254 59.1855 17.3583 57.977 19.5092C57.9012 19.6401 57.8084 19.7618 57.7239 19.8877" fill="#F8DC00"/>
<path d="M64.9667 34.3732C63.5141 35.6345 61.7652 36.5065 59.8837 36.9078C59.5652 36.9714 59.2431 37.0157 58.9192 37.0406C57.7871 37.1779 56.6413 36.9383 55.6591 36.3589C54.6769 35.7795 53.9131 34.8926 53.4857 33.8353C52.9729 32.8485 52.7051 31.7528 52.7048 30.6407C52.7172 29.4676 53.1137 28.3309 53.8336 27.4047C54.5535 26.4784 55.5572 25.8137 56.6909 25.5122C57.67 25.2187 58.6929 25.0984 59.7133 25.1567C61.6484 25.2455 63.546 25.7216 65.2938 26.5568C65.7632 26.7809 66.1958 27.0752 66.5767 27.4295C67.0047 27.8039 67.3218 28.2886 67.4935 28.8307C67.6651 29.3729 67.6849 29.9517 67.5505 30.5043C67.2661 31.6709 66.6601 32.7343 65.8013 33.5735C65.5065 33.8905 65.1762 34.1743 64.9686 34.3723" fill="#F8DC00"/>
<path d="M27.306 72.2512C29.2476 70.2761 25.753 65.2078 24.8977 63.432C20.7775 54.8856 21.8454 29.705 39.8536 26.9582C39.8536 26.9582 39.8536 19.1298 31.5121 17.812C28.0885 17.296 24.597 18.1039 21.7481 20.0714C18.4011 22.3631 15.8275 25.6157 14.367 29.4C10.7048 38.7093 7.19457 56.7161 22.6061 72.1295C23.5537 73.0771 25.5321 73.2406 26.6942 72.6807C26.9216 72.5738 27.1287 72.4283 27.3065 72.2507" fill="white"/>
<path d="M1.30361 26.8631C1.76979 26.823 2.23823 26.9079 2.66066 27.1091C3.08309 27.3103 3.44422 27.6205 3.70684 28.0078C5.38478 30.2452 7.13622 32.365 9.36674 34.0862C14.1805 37.7999 20.3939 39.4934 26.43 39.1935C31.1782 38.9578 37.1251 37.7631 39.1536 32.8432C39.8596 31.0393 40.1059 29.088 39.8703 27.1652C39.6346 25.2424 38.9244 23.4084 37.8036 21.8284C35.0935 18.0991 30.5843 17.292 26.2284 18.0536C26.9303 17.7445 31.9301 16.6816 35.2253 17.3444C46.5709 19.6268 53.2836 34.3452 46.6393 44.1694C37.8095 57.2283 19.151 53.1889 9.42048 43.4758L9.27258 43.3275C6.57656 40.6045 4.2503 37.5388 2.35364 34.2092C1.54751 32.7853 -0.310484 30.0128 0.0445806 28.2352C0.111673 27.9142 0.264008 27.6173 0.485564 27.3756C0.70712 27.1339 0.989709 26.9564 1.30361 26.8618" fill="#F8DC00"/>
</svg>
