<svg xmlns="http://www.w3.org/2000/svg" width="143.176" height="173.577" viewBox="0 0 143.176 173.577">
  <g id="Logo" transform="translate(-125.881 -37.972)">
    <g id="pawapp" transform="translate(125.881 37.972)">
      <path id="Path_272" data-name="Path 272" d="M51.052,93.714c-3.468,0-3.695-6.028-3.4-11.7a26.014,26.014,0,0,0-3.834.6,74.01,74.01,0,0,0-1.273,10.9c-.016.477-1.384.493-1.416,0a54.051,54.051,0,0,1,.923-10.39q-1.069.359-2.194.86c-.382.194-.716-.86.429-1.4a13.71,13.71,0,0,1,2-.746c1.161-5.823,3.086-11.153,5.489-11.153,2.228,0,2.242,4.916,2.132,10.12.334,0,.573,0,.681.016.681.111.558,1.081.081,1.081-.224,0-.493,0-.778.017-.112,5.474-.195,10.914,2.18,10.914.413,0,.508.875-1.019.875M47.707,80.89c.271-4.6.764-8.687-.064-8.687-1.209,0-2.593,4.168-3.6,9.2A31.145,31.145,0,0,1,47.7,80.89" transform="translate(44.109 78.948)" fill="#f8dc00"/>
      <path id="Path_273" data-name="Path 273" d="M48.192,84.68c.1,1.989.207,3.695.254,4.535.048.731-1.161.891-1.4.3a24.115,24.115,0,0,1-.843-4.772,2.172,2.172,0,0,1-1.146-.493c-.35-.271.017-.956.476-.681a3.05,3.05,0,0,0,.589.223,41.259,41.259,0,0,1-.081-7.128c.048-.572,2.292-.812,2.211-.032-.1.892-.143,1.989-.159,3.135.588-2.292,1.638-4.821,3.484-4.821,2.769,0,1.608,8.624-3.388,9.737m2.753-8.862c-1.211,0-2.467,5.887-2.8,7.383,0,.143.017.286.017.429C51.293,82.282,52.358,75.823,50.944,75.823Z" transform="translate(50.164 83.701)" fill="#f8dc00"/>
      <path id="Path_274" data-name="Path 274" d="M52.114,84.68c.1,1.989.207,3.695.254,4.535.048.731-1.161.891-1.4.3a24.114,24.114,0,0,1-.843-4.772,2.174,2.174,0,0,1-1.146-.493c-.35-.271.017-.956.478-.681a3.043,3.043,0,0,0,.589.223,41.28,41.28,0,0,1-.081-7.128c.049-.572,2.292-.812,2.211-.032-.1.892-.143,1.989-.159,3.135.588-2.292,1.638-4.821,3.484-4.821,2.769,0,1.608,8.624-3.387,9.737m2.753-8.862c-1.21,0-2.467,5.887-2.8,7.383,0,.143.017.286.017.429C55.215,82.282,56.281,75.823,54.866,75.823Z" transform="translate(54.544 83.701)" fill="#f8dc00"/>
      <path id="Path_275" data-name="Path 275" d="M60.255,67.207c-.212,1.556-2.688,20.582-9.761,20.582-4.667,0-5.517-9.123-5.3-17.47C42.5,81,40.732,90.691,35.924,90.691c-10.112,0-7.073-36.214,5.8-36.214,2.475,0,3.889,1.837,4.739,3.959,1.415-2.193,7.428-.778,6.932.99-.636,1.983-3.182,22.211-.99,22.211,2.4,0,4.315-11.959,4.952-14.43C57.851,65.367,60.467,65.579,60.255,67.207ZM45.614,63.813c-.212-1.983-.707-3.889-1.982-3.889-3.535,0-7.5,21.432-4.879,21.432,1.344,0,4.809-10.89,6.861-17.539" transform="translate(33.379 60.84)" fill="#fff"/>
      <path id="Path_276" data-name="Path 276" d="M75.035,99.286c-9.478,0-13.368-8.841-14.5-17.965-2.123,4.527-5.163,8.556-8.84,8.556-10.964,0-12.166-23.553-2.263-35.437,1.556-1.98,9.124.99,7.779,3.324-3.677,6.506-6.719,25.463-3.535,25.463,3.96,0,6.648-13.935,7.5-17.824.494-2.334,9.053-1.91,8.91.425-.282,5.164-1.556,29.495,4.952,29.495,8.487,0,6.436-27.372-2.545-40.033-.85-1.132,1.839-3.818,3.252-2.759,13.58,10.186,14,46.753-.707,46.753" transform="translate(47.669 58.395)" fill="#fff"/>
      <path id="Path_277" data-name="Path 277" d="M20.432,10.5c.71-1.711,1.44-3.748,2.4-5.674a11.08,11.08,0,0,1,2.219-2.946A6.425,6.425,0,0,1,31.424.266a11.854,11.854,0,0,1,5.038,2.739,23.886,23.886,0,0,1,7.7,13.369,16.088,16.088,0,0,1-.058,6.566,9.942,9.942,0,0,1-2.5,4.512c-2.933,3.359-10.382,4.938-13.89,3.706a11.361,11.361,0,0,1-7.149-6.4,17.816,17.816,0,0,1-1.017-9.61C19.744,13.7,20.091,12.267,20.432,10.5Z" transform="translate(21.549 0)" fill="#f8dc00"/>
      <path id="Path_278" data-name="Path 278" d="M57.477,25.121c-.7.731-1.612,1.833-2.675,2.765A9.185,9.185,0,0,1,48.635,30.3a14.476,14.476,0,0,1-11.551-5.191c-3.037-3.63-3.381-7.72-1.5-12.021a19.333,19.333,0,0,1,4.843-6.462A32.524,32.524,0,0,1,49.562.8,8.709,8.709,0,0,1,50.734.4c4.315-1.185,7.635.4,9.4,4.528a12.224,12.224,0,0,1,.762,2.357C62.156,13.527,60.956,19.325,57.477,25.121Z" transform="translate(38.444 0.018)" fill="#f8dc00"/>
      <path id="Path_279" data-name="Path 279" d="M70.01,32.358c-2.042,2.911-4.552,5.2-8.217,5.768a11.313,11.313,0,0,1-8.626-2.03,17.244,17.244,0,0,1-4.68-4.816,10.448,10.448,0,0,1-.081-11.5c3.574-6.041,9.012-9.537,15.861-10.87a10.5,10.5,0,0,1,4.517.124,6.556,6.556,0,0,1,5.02,4.627,9.923,9.923,0,0,1,.524,2.969,29.543,29.543,0,0,1-3.783,14.925C70.386,31.833,70.189,32.092,70.01,32.358Z" transform="translate(52.179 9.741)" fill="#f8dc00"/>
      <path id="Path_280" data-name="Path 280" d="M78.661,44.682A24.068,24.068,0,0,1,67.9,50.047a17.138,17.138,0,0,1-2.042.281,10.98,10.98,0,0,1-11.5-6.785A14.674,14.674,0,0,1,52.7,36.781a11.357,11.357,0,0,1,8.438-10.856,18.588,18.588,0,0,1,6.4-.753,30.656,30.656,0,0,1,11.813,2.964,10.85,10.85,0,0,1,2.716,1.847,6.582,6.582,0,0,1,2.061,6.509,13.581,13.581,0,0,1-3.7,6.5c-.624.671-1.323,1.272-1.763,1.691" transform="translate(58.86 28.079)" fill="#f8dc00"/>
      <path id="Path_281" data-name="Path 281" d="M45.272,133.218c4.11-4.181-3.287-14.909-5.1-18.668-8.722-18.091-6.461-71.393,31.658-77.207,0,0,0-16.571-17.657-19.361a28.814,28.814,0,0,0-20.668,4.783A42.459,42.459,0,0,0,17.883,42.511C10.13,62.217,2.7,100.334,35.323,132.96c2.006,2.006,6.194,2.352,8.654,1.167A4.6,4.6,0,0,0,45.272,133.218Z" transform="translate(12.529 19.722)" fill="#fff"/>
      <path id="Path_282" data-name="Path 282" d="M2.759,37.732a5.569,5.569,0,0,1,5.087,2.423c3.552,4.736,7.259,9.223,11.981,12.867,10.19,7.861,23.342,11.446,36.119,10.811C66,63.334,78.586,60.805,82.88,50.391a24.724,24.724,0,0,0-2.858-23.316c-5.737-7.894-15.282-9.6-24.5-7.99,1.486-.654,12.069-2.9,19.045-1.5C98.581,22.414,112.79,53.57,98.726,74.366,80.035,102.009,40.539,93.458,19.941,72.9l-.313-.314a92.523,92.523,0,0,1-14.646-19.3C3.276,50.268-.657,44.4.094,40.636a3.861,3.861,0,0,1,2.665-2.907" transform="translate(0 19.131)" fill="#f8dc00"/>
    </g>
  </g>
</svg>
