<svg width="59" height="59" viewBox="0 0 59 59" fill="none" xmlns="http://www.w3.org/2000/svg">
<path d="M50.4761 56.083C50.4761 56.6352 50.0284 57.083 49.4761 57.083H9.52332C8.97103 57.083 8.52332 56.6352 8.52332 56.083V23.4829C8.52332 23.1954 8.64705 22.9218 8.86294 22.732L28.8393 5.16484C29.2169 4.83275 29.7824 4.83275 30.16 5.16483L30.8204 4.4139L30.16 5.16483L50.1365 22.732C50.3524 22.9218 50.4761 23.1954 50.4761 23.4829V56.083Z" fill="#FFF5CB" stroke="#003276" stroke-width="2"/>
<path d="M28.6729 30.2013L28.6773 30.2075L28.6777 30.208L28.6778 30.2083L28.6781 30.2086L29.5004 31.4025L30.3228 30.2086L30.323 30.2083L30.323 30.2083L30.3232 30.208L30.3235 30.2075L30.328 30.2013C30.3332 30.1939 30.3423 30.1811 30.3553 30.1635C30.3811 30.1282 30.4222 30.0734 30.4778 30.0025C30.5891 29.8607 30.758 29.6559 30.9796 29.4161C31.4253 28.9339 32.0711 28.3244 32.878 27.7987C34.4756 26.7579 36.6425 26.071 39.2274 27.2712L39.6485 26.3642L39.2274 27.2712C41.6419 28.3922 43.3498 32.0325 42.2885 36.3842C41.265 40.5811 37.6176 45.3668 29.5004 48.3953C21.3832 45.3668 17.7358 40.581 16.7123 36.3842C15.6511 32.0325 17.359 28.3922 19.7735 27.2712C22.3585 26.071 24.5254 26.7579 26.1229 27.7987C26.9298 28.3244 27.5756 28.9339 28.0213 29.4161C28.2429 29.6559 28.4117 29.8607 28.5231 30.0025C28.5787 30.0734 28.6197 30.1282 28.6456 30.1635C28.6585 30.1811 28.6677 30.1939 28.6729 30.2013Z" fill="#FFD833" stroke="#003276" stroke-width="2"/>
<path d="M55.2362 28.3254C54.8732 28.7417 54.2415 28.7848 53.8252 28.4218L31.4715 8.92577C30.3416 7.94031 28.6576 7.94031 27.5277 8.92577L5.17412 28.4218C4.75789 28.7848 4.12618 28.7417 3.76317 28.3254L2.25493 26.596C1.89193 26.1798 1.93508 25.5481 2.35129 25.1851L28.8423 2.0807C29.2189 1.75222 29.7803 1.75222 30.1569 2.0807L56.648 25.1851C57.0643 25.5481 57.1074 26.1798 56.7444 26.596L55.2362 28.3254Z" fill="#F8DC00" stroke="#003276" stroke-width="2"/>
</svg>
