<svg width="65" height="65" viewBox="0 0 65 65" fill="none" xmlns="http://www.w3.org/2000/svg">
<path d="M7.10938 1.01562H43.6719V7.10938H7.10938V1.01562Z" fill="#4272B5"/>
<path d="M37.5781 19.2969L43.6719 7.10938L49.7656 19.2969V60.9375C49.7656 61.7456 49.4446 62.5206 48.8732 63.092C48.3018 63.6634 47.5268 63.9844 46.7188 63.9844H34.5312C35.3393 63.9844 36.1143 63.6634 36.6857 63.092C37.2571 62.5206 37.5781 61.7456 37.5781 60.9375V19.2969Z" fill="#003276"/>
<path d="M1.01562 19.2969H37.5781V60.9375C37.5781 61.7456 37.2571 62.5206 36.6857 63.092C36.1143 63.6634 35.3393 63.9844 34.5312 63.9844H4.0625C3.25442 63.9844 2.47943 63.6634 1.90803 63.092C1.33663 62.5206 1.01563 61.7456 1.01562 60.9375V19.2969Z" fill="#4272B5"/>
<path d="M37.5781 28.4375H29.6898C28.458 26.8561 26.8815 25.5767 25.0805 24.6966C23.2795 23.8166 21.3014 23.3591 19.2969 23.3591C17.2923 23.3591 15.3142 23.8166 13.5132 24.6966C11.7122 25.5767 10.1358 26.8561 8.90398 28.4375H1.01562V44.6875H8.90398C10.1358 46.2689 11.7122 47.5484 13.5132 48.4284C15.3142 49.3085 17.2923 49.7659 19.2969 49.7659C21.3014 49.7659 23.2795 49.3085 25.0805 48.4284C26.8815 47.5484 28.458 46.2689 29.6898 44.6875H37.5781V28.4375Z" fill="#FAE169"/>
<path d="M23.3655 40.4036C22.7812 39.9287 22.356 39.2866 22.1467 38.5633C21.7273 36.8052 20.6172 35.5469 19.2969 35.5469C17.9766 35.5469 16.8665 36.8052 16.445 38.5633C16.2358 39.2866 15.8105 39.9287 15.2263 40.4036C14.8345 40.7528 14.5404 41.198 14.373 41.6954C14.2056 42.1928 14.1707 42.7252 14.2716 43.2402C14.3858 43.8213 14.6665 44.3566 15.0794 44.781C15.4923 45.2055 16.0197 45.5008 16.5974 45.631C17.072 45.7375 17.5653 45.7278 18.0353 45.6026C18.5053 45.4774 18.9382 45.2405 19.2969 44.912C19.6554 45.2401 20.0879 45.4769 20.5575 45.6021C21.0272 45.7273 21.5201 45.7372 21.9944 45.631C22.5719 45.5006 23.0992 45.2052 23.5121 44.7808C23.9249 44.3564 24.2057 43.8212 24.3202 43.2402C24.4211 42.7252 24.3861 42.1928 24.2187 41.6954C24.0513 41.198 23.7573 40.7528 23.3655 40.4036Z" fill="#C87D4B"/>
<path d="M19.2969 32.5C20.4187 32.5 21.3281 31.5906 21.3281 30.4688C21.3281 29.3469 20.4187 28.4375 19.2969 28.4375C18.175 28.4375 17.2656 29.3469 17.2656 30.4688C17.2656 31.5906 18.175 32.5 19.2969 32.5Z" fill="#C87D4B"/>
<path d="M26.4062 36.5625C27.5281 36.5625 28.4375 35.6531 28.4375 34.5312C28.4375 33.4094 27.5281 32.5 26.4062 32.5C25.2844 32.5 24.375 33.4094 24.375 34.5312C24.375 35.6531 25.2844 36.5625 26.4062 36.5625Z" fill="#C87D4B"/>
<path d="M12.1875 36.5625C13.3093 36.5625 14.2188 35.6531 14.2188 34.5312C14.2188 33.4094 13.3093 32.5 12.1875 32.5C11.0657 32.5 10.1562 33.4094 10.1562 34.5312C10.1562 35.6531 11.0657 36.5625 12.1875 36.5625Z" fill="#C87D4B"/>
<path d="M43.6719 7.10938H7.10938L1.01562 19.2969H37.5781L43.6719 7.10938Z" fill="#97BFF5"/>
<path d="M1.01562 56.875H37.5781V60.9375C37.5781 61.7456 37.2571 62.5206 36.6857 63.092C36.1143 63.6634 35.3393 63.9844 34.5312 63.9844H4.0625C3.25442 63.9844 2.47943 63.6634 1.90803 63.092C1.33663 62.5206 1.01563 61.7456 1.01562 60.9375V56.875Z" fill="#003276"/>
<path d="M62.9688 35.5469C62.9681 34.892 62.8119 34.2466 62.513 33.6639C62.214 33.0812 61.7809 32.5778 61.2493 32.1953C61.5192 31.5988 61.643 30.9465 61.6106 30.2925C61.5781 29.6385 61.3903 29.0017 61.0627 28.4347C60.7351 27.8678 60.2772 27.387 59.7268 27.0324C59.1764 26.6777 58.5494 26.4592 57.8977 26.3951C57.8336 25.7435 57.6152 25.1165 57.2605 24.5661C56.9058 24.0157 56.4251 23.5577 55.8581 23.2301C55.2912 22.9025 54.6543 22.7147 54.0004 22.6823C53.3464 22.6498 52.6941 22.7737 52.0975 23.0435C51.7159 22.5108 51.2129 22.0766 50.63 21.7771C50.0471 21.4776 49.4013 21.3214 48.7459 21.3214C48.0906 21.3214 47.4448 21.4776 46.8619 21.7771C46.279 22.0766 45.7759 22.5108 45.3944 23.0435C44.7978 22.7737 44.1455 22.6498 43.4915 22.6823C42.8375 22.7147 42.2007 22.9025 41.6338 23.2301C41.0668 23.5577 40.5861 24.0157 40.2314 24.5661C39.8767 25.1165 39.6583 25.7435 39.5941 26.3951C38.9425 26.4592 38.3155 26.6777 37.7651 27.0324C37.2147 27.387 36.7568 27.8678 36.4292 28.4347C36.1016 29.0017 35.9138 29.6385 35.8813 30.2925C35.8489 30.9465 35.9727 31.5988 36.2426 32.1953C35.7098 32.5769 35.2757 33.08 34.9762 33.6628C34.6767 34.2457 34.5204 34.8916 34.5204 35.5469C34.5204 36.2022 34.6767 36.8481 34.9762 37.431C35.2757 38.0138 35.7098 38.5169 36.2426 38.8985C35.9727 39.495 35.8489 40.1473 35.8813 40.8013C35.9138 41.4553 36.1016 42.0921 36.4292 42.6591C36.7568 43.226 37.2147 43.7068 37.7651 44.0614C38.3155 44.4161 38.9425 44.6346 39.5941 44.6987C39.6583 45.3503 39.8767 45.9773 40.2314 46.5277C40.5861 47.0781 41.0668 47.5361 41.6338 47.8637C42.2007 48.1913 42.8375 48.3791 43.4915 48.4115C44.1455 48.444 44.7978 48.3201 45.3944 48.0503C45.7759 48.583 46.279 49.0172 46.8619 49.3167C47.4448 49.6162 48.0906 49.7724 48.7459 49.7724C49.4013 49.7724 50.0471 49.6162 50.63 49.3167C51.2129 49.0172 51.7159 48.583 52.0975 48.0503C52.6941 48.3201 53.3464 48.444 54.0004 48.4115C54.6543 48.3791 55.2912 48.1913 55.8581 47.8637C56.4251 47.5361 56.9058 47.0781 57.2605 46.5277C57.6152 45.9773 57.8336 45.3503 57.8977 44.6987C58.5494 44.6346 59.1764 44.4161 59.7268 44.0614C60.2772 43.7068 60.7351 43.226 61.0627 42.6591C61.3903 42.0921 61.5781 41.4553 61.6106 40.8013C61.643 40.1473 61.5192 39.495 61.2493 38.8985C61.7809 38.516 62.214 38.0126 62.513 37.4299C62.8119 36.8472 62.9681 36.2018 62.9688 35.5469Z" fill="#F5FBFF"/>
<path d="M62.9688 35.5468C62.9684 34.8919 62.8123 34.2464 62.5133 33.6636C62.2144 33.0809 61.7811 32.5776 61.2493 32.1953C61.5194 31.5986 61.6434 30.9462 61.611 30.2921C61.5787 29.638 61.3909 29.001 61.0633 28.4339C60.7357 27.8669 60.2777 27.386 59.7271 27.0313C59.1766 26.6765 58.5495 26.4581 57.8977 26.394C57.8399 25.9353 57.7071 25.4893 57.5047 25.0737C56.973 24.8373 56.3974 24.7157 55.8156 24.7167C55.2337 24.7178 54.6586 24.8415 54.1277 25.0798C53.7462 24.5478 53.2434 24.1144 52.661 23.8154C52.0786 23.5164 51.4334 23.3605 50.7787 23.3605C50.1241 23.3605 49.4788 23.5164 48.8964 23.8154C48.314 24.1144 47.8112 24.5478 47.4297 25.0798C46.8331 24.8099 46.1808 24.6861 45.5268 24.7185C44.8729 24.751 44.236 24.9388 43.6691 25.2664C43.1021 25.594 42.6214 26.0519 42.2667 26.6023C41.912 27.1527 41.6936 27.7797 41.6295 28.4314C40.9777 28.4954 40.3506 28.7139 39.8001 29.0686C39.2495 29.4234 38.7915 29.9042 38.4639 30.4713C38.1363 31.0384 37.9485 31.6753 37.9162 32.3295C37.8838 32.9836 38.0078 33.636 38.2779 34.2326C37.7459 34.614 37.3125 35.1167 37.0135 35.6991C36.7145 36.2814 36.5586 36.9265 36.5586 37.5811C36.5586 38.2357 36.7145 38.8809 37.0135 39.4632C37.3125 40.0455 37.7459 40.5482 38.2779 40.9296C38.0396 41.4605 37.9159 42.0356 37.9149 42.6175C37.9138 43.1993 38.0354 43.7749 38.2718 44.3066C38.6874 44.509 39.1335 44.6418 39.5921 44.6996C39.6562 45.3513 39.8747 45.9783 40.2294 46.5287C40.5841 47.0791 41.0648 47.537 41.6317 47.8646C42.1987 48.1922 42.8355 48.38 43.4895 48.4125C44.1435 48.4449 44.7958 48.3211 45.3924 48.0512C45.7739 48.5832 46.2767 49.0166 46.8591 49.3156C47.4415 49.6146 48.0867 49.7705 48.7414 49.7705C49.396 49.7705 50.0413 49.6146 50.6237 49.3156C51.2061 49.0166 51.7088 48.5832 52.0904 48.0512C52.687 48.3213 53.3394 48.4453 53.9935 48.4129C54.6477 48.3806 55.2846 48.1928 55.8517 47.8652C56.4188 47.5376 56.8996 47.0795 57.2544 46.529C57.6091 45.9785 57.8276 45.3514 57.8916 44.6996C58.5434 44.6356 59.1705 44.4171 59.7211 44.0624C60.2716 43.7076 60.7296 43.2268 61.0572 42.6597C61.3848 42.0926 61.5726 41.4556 61.6049 40.8015C61.6373 40.1474 61.5133 39.495 61.2432 38.8984C61.7761 38.5167 62.2106 38.0137 62.5106 37.4309C62.8107 36.8481 62.9677 36.2023 62.9688 35.5468Z" fill="#E6F4FF"/>
<path d="M48.75 43.6719C53.2373 43.6719 56.875 40.0342 56.875 35.5469C56.875 31.0596 53.2373 27.4219 48.75 27.4219C44.2627 27.4219 40.625 31.0596 40.625 35.5469C40.625 40.0342 44.2627 43.6719 48.75 43.6719Z" fill="#D2EAFF"/>
<path d="M62.4609 60.9375H35.0391C34.635 60.9375 34.2475 61.098 33.9618 61.3837C33.6761 61.6694 33.5156 62.0569 33.5156 62.4609C33.5156 62.865 33.6761 63.2525 33.9618 63.5382C34.2475 63.8239 34.635 63.9844 35.0391 63.9844H62.4609C62.865 63.9844 63.2525 63.8239 63.5382 63.5382C63.8239 63.2525 63.9844 62.865 63.9844 62.4609C63.9844 62.0569 63.8239 61.6694 63.5382 61.3837C63.2525 61.098 62.865 60.9375 62.4609 60.9375Z" fill="#F5FBFF"/>
<path d="M63.9844 62.4609H37.0703C36.6663 62.4609 36.2788 62.6214 35.9931 62.9071C35.7074 63.1928 35.5469 63.5803 35.5469 63.9844H62.4609C62.865 63.9844 63.2525 63.8239 63.5382 63.5382C63.8239 63.2525 63.9844 62.865 63.9844 62.4609Z" fill="#E6F4FF"/>
<path d="M35.0391 46.7188H62.4609V60.9375H35.0391V46.7188Z" fill="#FFED96"/>
<path d="M37.0703 46.7188H62.4609V60.9375H37.0703V46.7188Z" fill="#FAE169"/>
<path d="M35.0391 46.7188H62.4609V48.75H35.0391V46.7188Z" fill="#FAE169"/>
<path d="M37.0703 46.7188H62.4609V48.75H37.0703V46.7188Z" fill="#F5C85A"/>
<path d="M62.4609 43.6719H35.0391C34.635 43.6719 34.2475 43.8324 33.9618 44.1181C33.6761 44.4038 33.5156 44.7913 33.5156 45.1953C33.5156 45.5994 33.6761 45.9868 33.9618 46.2725C34.2475 46.5582 34.635 46.7188 35.0391 46.7188H62.4609C62.865 46.7188 63.2525 46.5582 63.5382 46.2725C63.8239 45.9868 63.9844 45.5994 63.9844 45.1953C63.9844 44.7913 63.8239 44.4038 63.5382 44.1181C63.2525 43.8324 62.865 43.6719 62.4609 43.6719Z" fill="#F5FBFF"/>
<path d="M63.9844 45.1953H37.0703C36.6663 45.1953 36.2788 45.3558 35.9931 45.6415C35.7074 45.9272 35.5469 46.3147 35.5469 46.7188H62.4609C62.865 46.7188 63.2525 46.5582 63.5382 46.2725C63.8239 45.9868 63.9844 45.5994 63.9844 45.1953Z" fill="#E6F4FF"/>
<path d="M57.1898 53.8282C57.4472 53.6051 57.6444 53.3208 57.7631 53.0015C57.8819 52.6822 57.9185 52.3382 57.8695 52.0011C57.8205 51.664 57.6875 51.3447 57.4827 51.0724C57.278 50.8002 57.008 50.5838 56.6978 50.4432C56.3875 50.3026 56.0469 50.2423 55.7072 50.2678C55.3675 50.2933 55.0397 50.4039 54.7539 50.5892C54.4681 50.7746 54.2335 51.0289 54.0718 51.3287C53.91 51.6285 53.8262 51.9641 53.8281 52.3047H43.6719C43.6738 51.9641 43.59 51.6285 43.4282 51.3287C43.2665 51.0289 43.0319 50.7746 42.7461 50.5892C42.4603 50.4039 42.1325 50.2933 41.7928 50.2678C41.4531 50.2423 41.1125 50.3026 40.8022 50.4432C40.492 50.5838 40.222 50.8002 40.0173 51.0724C39.8125 51.3447 39.6795 51.664 39.6305 52.0011C39.5815 52.3382 39.6181 52.6822 39.7368 53.0015C39.8556 53.3208 40.0528 53.6051 40.3102 53.8282C40.0528 54.0513 39.8556 54.3356 39.7368 54.6549C39.6181 54.9741 39.5815 55.3181 39.6305 55.6552C39.6795 55.9923 39.8125 56.3117 40.0173 56.5839C40.222 56.8562 40.492 57.0726 40.8022 57.2132C41.1125 57.3538 41.4531 57.4141 41.7928 57.3886C42.1325 57.363 42.4603 57.2525 42.7461 57.0671C43.0319 56.8817 43.2665 56.6275 43.4282 56.3277C43.59 56.0279 43.6738 55.6923 43.6719 55.3516H53.8281C53.8262 55.6923 53.91 56.0279 54.0718 56.3277C54.2335 56.6275 54.4681 56.8817 54.7539 57.0671C55.0397 57.2525 55.3675 57.363 55.7072 57.3886C56.0469 57.4141 56.3875 57.3538 56.6978 57.2132C57.008 57.0726 57.278 56.8562 57.4827 56.5839C57.6875 56.3117 57.8205 55.9923 57.8695 55.6552C57.9185 55.3181 57.8819 54.9741 57.7631 54.6549C57.6444 54.3356 57.4472 54.0513 57.1898 53.8282Z" fill="#F5FBFF"/>
<path d="M41.6406 58.1445C42.2484 58.1438 42.8394 57.9451 43.3242 57.5786C43.8091 57.2122 44.1614 56.6978 44.328 56.1133H53.172C53.3529 56.7655 53.7644 57.3299 54.3301 57.7015C54.8959 58.0731 55.5773 58.2266 56.2477 58.1335C56.9181 58.0404 57.5319 57.707 57.975 57.1953C58.418 56.6836 58.6602 56.0284 58.6564 55.3516C58.6555 54.8095 58.4951 54.2797 58.1953 53.8281C58.4948 53.3764 58.6548 52.8466 58.6554 52.3047C58.6592 51.6278 58.417 50.9727 57.974 50.4609C57.5309 49.9492 56.9171 49.6158 56.2467 49.5227C55.5763 49.4296 54.8948 49.5831 54.3291 49.9547C53.7634 50.3263 53.3518 50.8907 53.171 51.543H44.328C44.1471 50.8907 43.7356 50.3263 43.1699 49.9547C42.6041 49.5831 41.9227 49.4296 41.2523 49.5227C40.5819 49.6158 39.9681 49.9492 39.525 50.4609C39.082 50.9727 38.8398 51.6278 38.8436 52.3047C38.8445 52.8467 39.0049 53.3765 39.3047 53.8281C39.0052 54.2798 38.8452 54.8096 38.8446 55.3516C38.8451 56.0927 39.14 56.8032 39.6643 57.327C40.1887 57.8507 40.8995 58.1448 41.6406 58.1445ZM40.8119 53.2543C40.674 53.1374 40.5631 52.992 40.487 52.828C40.4109 52.664 40.3714 52.4855 40.3711 52.3047C40.3711 51.968 40.5048 51.6451 40.7429 51.407C40.981 51.1689 41.3039 51.0352 41.6406 51.0352C41.9773 51.0352 42.3002 51.1689 42.5383 51.407C42.7764 51.6451 42.9102 51.968 42.9102 52.3047C42.9102 52.5067 42.9904 52.7005 43.1333 52.8433C43.2761 52.9862 43.4699 53.0664 43.6719 53.0664H53.8281C54.0301 53.0664 54.2239 52.9862 54.3667 52.8433C54.5096 52.7005 54.5898 52.5067 54.5898 52.3047C54.5898 51.968 54.7236 51.6451 54.9617 51.407C55.1998 51.1689 55.5227 51.0352 55.8594 51.0352C56.1961 51.0352 56.519 51.1689 56.7571 51.407C56.9952 51.6451 57.1289 51.968 57.1289 52.3047C57.1286 52.4855 57.0891 52.664 57.013 52.828C56.9369 52.992 56.826 53.1374 56.6881 53.2543C56.6064 53.3259 56.5409 53.4141 56.496 53.5131C56.4511 53.612 56.4279 53.7195 56.4279 53.8281C56.4279 53.9368 56.4511 54.0442 56.496 54.1432C56.5409 54.2421 56.6064 54.3304 56.6881 54.402C56.826 54.5188 56.9369 54.6643 57.013 54.8283C57.0891 54.9922 57.1286 55.1708 57.1289 55.3516C57.1289 55.6883 56.9952 56.0112 56.7571 56.2493C56.519 56.4873 56.1961 56.6211 55.8594 56.6211C55.5227 56.6211 55.1998 56.4873 54.9617 56.2493C54.7236 56.0112 54.5898 55.6883 54.5898 55.3516C54.5898 55.1495 54.5096 54.9558 54.3667 54.8129C54.2239 54.6701 54.0301 54.5898 53.8281 54.5898H43.6719C43.4699 54.5898 43.2761 54.6701 43.1333 54.8129C42.9904 54.9558 42.9102 55.1495 42.9102 55.3516C42.9102 55.6883 42.7764 56.0112 42.5383 56.2493C42.3002 56.4873 41.9773 56.6211 41.6406 56.6211C41.3039 56.6211 40.981 56.4873 40.7429 56.2493C40.5048 56.0112 40.3711 55.6883 40.3711 55.3516C40.3714 55.1708 40.4109 54.9922 40.487 54.8283C40.5631 54.6643 40.674 54.5188 40.8119 54.402C40.8936 54.3304 40.9591 54.2421 41.004 54.1432C41.0489 54.0442 41.0721 53.9368 41.0721 53.8281C41.0721 53.7195 41.0489 53.612 41.004 53.5131C40.9591 53.4141 40.8936 53.3259 40.8119 53.2543ZM13.5241 43.3794C13.6405 43.9885 13.9043 44.5599 14.2925 45.0435C14.6806 45.5271 15.1814 45.9084 15.7509 46.1538C16.3204 46.3993 16.9413 46.5016 17.5594 46.4517C18.1776 46.4018 18.7741 46.2013 19.2969 45.8677C19.9027 46.2573 20.6078 46.4646 21.3281 46.4648C21.6058 46.4646 21.8826 46.4346 22.1538 46.3755C22.8364 46.2249 23.4642 45.889 23.9681 45.4046C24.4721 44.9203 24.8327 44.3063 25.0102 43.6303C25.1878 42.9543 25.1754 42.2423 24.9744 41.5729C24.7735 40.9034 24.3918 40.3024 23.8713 39.8359C23.403 39.4643 23.0599 38.9581 22.8881 38.3855C22.3732 36.2314 20.929 34.7852 19.2969 34.7852C17.6394 34.7852 16.2287 36.1989 15.7036 38.3855C15.5318 38.9581 15.1887 39.4643 14.7205 39.8359C14.2314 40.2724 13.8641 40.8285 13.6543 41.4496C13.4446 42.0708 13.3997 42.7357 13.5241 43.3794ZM15.7361 40.9713C16.44 40.3956 16.9467 39.6145 17.1854 38.737C17.5287 37.3059 18.397 36.3055 19.2969 36.3055C20.1967 36.3055 21.0651 37.3059 21.4084 38.737C21.647 39.6145 22.1537 40.3956 22.8577 40.9713C23.1507 41.2348 23.3704 41.5699 23.495 41.9438C23.6196 42.3177 23.645 42.7175 23.5686 43.1041C23.481 43.5365 23.2711 43.9346 22.964 44.2513C22.6569 44.5679 22.2654 44.7898 21.8359 44.8906C21.4798 44.9703 21.1097 44.9628 20.7571 44.8687C20.4045 44.7746 20.0799 44.5968 19.8108 44.3503C19.6711 44.2254 19.4903 44.1563 19.303 44.1563C19.1156 44.1563 18.9348 44.2254 18.7952 44.3503C18.5258 44.5984 18.2002 44.7773 17.8463 44.8714C17.4924 44.9655 17.1209 44.9721 16.7639 44.8906C16.3335 44.7908 15.9409 44.5695 15.6326 44.253C15.3244 43.9364 15.1135 43.538 15.0252 43.1052C14.9484 42.7184 14.9736 42.3183 15.0982 41.9441C15.2228 41.57 15.4427 41.2348 15.7361 40.9713ZM19.2969 33.2617C19.8493 33.2617 20.3893 33.0979 20.8486 32.791C21.3079 32.4841 21.6658 32.0479 21.8772 31.5376C22.0886 31.0272 22.1439 30.4657 22.0362 29.9239C21.9284 29.3821 21.6624 28.8844 21.2718 28.4938C20.8812 28.1032 20.3835 27.8372 19.8418 27.7294C19.3 27.6217 18.7384 27.677 18.2281 27.8884C17.7177 28.0998 17.2815 28.4578 16.9746 28.9171C16.6677 29.3764 16.5039 29.9164 16.5039 30.4688C16.5044 31.2093 16.7989 31.9194 17.3225 32.4431C17.8462 32.9667 18.5563 33.2612 19.2969 33.2617ZM19.2969 29.1992C19.548 29.1992 19.7934 29.2737 20.0022 29.4132C20.211 29.5527 20.3737 29.7509 20.4698 29.9829C20.5659 30.2149 20.591 30.4702 20.542 30.7164C20.493 30.9627 20.3721 31.1889 20.1946 31.3664C20.017 31.544 19.7908 31.6649 19.5445 31.7139C19.2983 31.7629 19.043 31.7377 18.811 31.6416C18.5791 31.5456 18.3808 31.3828 18.2413 31.1741C18.1018 30.9653 18.0273 30.7198 18.0273 30.4688C18.0273 30.1321 18.1611 29.8091 18.3992 29.5711C18.6373 29.333 18.9602 29.1992 19.2969 29.1992ZM26.4062 37.3242C26.9586 37.3242 27.4986 37.1604 27.9579 36.8535C28.4172 36.5466 28.7752 36.1104 28.9866 35.6001C29.198 35.0897 29.2533 34.5282 29.1456 33.9864C29.0378 33.4446 28.7718 32.9469 28.3812 32.5563C27.9906 32.1657 27.4929 31.8997 26.9511 31.7919C26.4093 31.6842 25.8478 31.7395 25.3374 31.9509C24.8271 32.1623 24.3909 32.5203 24.084 32.9796C23.7771 33.4389 23.6133 33.9789 23.6133 34.5313C23.6138 35.2718 23.9083 35.9819 24.4319 36.5056C24.9556 37.0293 25.6657 37.3237 26.4062 37.3242ZM26.4062 33.2617C26.6573 33.2617 26.9028 33.3362 27.1116 33.4757C27.3203 33.6152 27.4831 33.8134 27.5791 34.0454C27.6752 34.2774 27.7004 34.5327 27.6514 34.7789C27.6024 35.0252 27.4815 35.2514 27.3039 35.4289C27.1264 35.6065 26.9002 35.7274 26.6539 35.7764C26.4077 35.8254 26.1524 35.8002 25.9204 35.7041C25.6884 35.6081 25.4902 35.4453 25.3507 35.2366C25.2112 35.0278 25.1367 34.7823 25.1367 34.5313C25.1367 34.1946 25.2705 33.8716 25.5086 33.6336C25.7466 33.3955 26.0695 33.2617 26.4062 33.2617ZM12.1875 37.3242C12.7399 37.3242 13.2799 37.1604 13.7392 36.8535C14.1985 36.5466 14.5565 36.1104 14.7679 35.6001C14.9793 35.0897 15.0346 34.5282 14.9268 33.9864C14.819 33.4446 14.553 32.9469 14.1624 32.5563C13.7718 32.1657 13.2742 31.8997 12.7324 31.7919C12.1906 31.6842 11.629 31.7395 11.1187 31.9509C10.6083 32.1623 10.1721 32.5203 9.86523 32.9796C9.55834 33.4389 9.39453 33.9789 9.39453 34.5313C9.39507 35.2718 9.6895 35.9819 10.2132 36.5056C10.7368 37.0293 11.4469 37.3237 12.1875 37.3242ZM12.1875 33.2617C12.4386 33.2617 12.684 33.3362 12.8928 33.4757C13.1016 33.6152 13.2643 33.8134 13.3604 34.0454C13.4565 34.2774 13.4816 34.5327 13.4326 34.7789C13.3837 35.0252 13.2627 35.2514 13.0852 35.4289C12.9076 35.6065 12.6814 35.7274 12.4352 35.7764C12.1889 35.8254 11.9336 35.8002 11.7017 35.7041C11.4697 35.6081 11.2714 35.4453 11.1319 35.2366C10.9924 35.0278 10.918 34.7823 10.918 34.5313C10.918 34.1946 11.0517 33.8716 11.2898 33.6336C11.5279 33.3955 11.8508 33.2617 12.1875 33.2617Z" fill="#003276"/>
<mask id="path-24-inside-1_2115_3228" fill="white">
<path d="M63.2227 60.3159V47.3403C63.7302 47.1612 64.158 46.8083 64.4303 46.3441C64.7027 45.8799 64.8021 45.3343 64.7109 44.8039C64.6197 44.2734 64.3438 43.7924 63.932 43.4458C63.5202 43.0992 62.9991 42.9095 62.4609 42.9102H61.7795C62.0884 42.3375 62.2804 41.7091 62.3443 41.0615C62.4081 40.4139 62.3424 39.7601 62.1512 39.1381C62.6486 38.6815 63.0458 38.1264 63.3175 37.5082C63.5891 36.89 63.7294 36.2221 63.7294 35.5469C63.7294 34.8716 63.5891 34.2037 63.3175 33.5855C63.0458 32.9673 62.6486 32.4123 62.1512 31.9556C62.3536 31.3115 62.42 30.6324 62.3462 29.9613C62.2724 29.2902 62.06 28.6418 61.7225 28.057C61.3849 27.4723 60.9296 26.9641 60.3854 26.5645C59.8412 26.165 59.2199 25.8828 58.5609 25.7359C58.4146 25.0765 58.1329 24.4547 57.7336 23.9099C57.3343 23.3651 56.8262 22.9092 56.2414 22.5712C55.6566 22.2331 55.0079 22.0203 54.3365 21.9462C53.6652 21.8721 52.9857 21.9383 52.3412 22.1406C51.8354 21.6038 51.2156 21.1873 50.5273 20.9219V19.2969C50.5273 19.1788 50.4999 19.0623 50.4471 18.9566L44.4336 6.92961V1.01562C44.4336 0.813605 44.3533 0.619858 44.2105 0.477009C44.0676 0.334159 43.8739 0.253906 43.6719 0.253906H7.10938C6.90735 0.253906 6.71361 0.334159 6.57076 0.477009C6.42791 0.619858 6.34766 0.813605 6.34766 1.01562V6.92961L0.334141 18.9566C0.281382 19.0623 0.253914 19.1788 0.253906 19.2969V60.9375C0.254982 61.9473 0.656588 62.9154 1.37061 63.6294C2.08462 64.3434 3.05273 64.745 4.0625 64.7461H34.5312C34.6237 64.7439 34.716 64.7361 34.8075 64.7227C34.8842 64.7346 34.9615 64.7424 35.0391 64.7461H62.4609C62.9991 64.7468 63.5202 64.557 63.932 64.2104C64.3438 63.8639 64.6197 63.3828 64.7109 62.8524C64.8021 62.322 64.7027 61.7764 64.4303 61.3122C64.158 60.848 63.7302 60.4951 63.2227 60.3159ZM62.4609 44.4336C62.663 44.4336 62.8567 44.5138 62.9996 44.6567C63.1424 44.7995 63.2227 44.9933 63.2227 45.1953C63.2227 45.3973 63.1424 45.5911 62.9996 45.7339C62.8567 45.8768 62.663 45.957 62.4609 45.957H35.0391C34.837 45.957 34.6433 45.8768 34.5004 45.7339C34.3576 45.5911 34.2773 45.3973 34.2773 45.1953C34.2773 44.9933 34.3576 44.7995 34.5004 44.6567C34.6433 44.5138 34.837 44.4336 35.0391 44.4336H62.4609ZM61.6992 47.4805V60.1758H35.8008V47.4805H61.6992ZM51.483 23.4955C51.5857 23.6369 51.7339 23.7387 51.9027 23.7838C52.0716 23.8289 52.2508 23.8146 52.4103 23.7433C52.8968 23.5223 53.4291 23.4206 53.9628 23.4466C54.4965 23.4727 55.0163 23.6257 55.4791 23.8929C55.9418 24.1602 56.3341 24.534 56.6233 24.9833C56.9125 25.4326 57.0904 25.9445 57.1421 26.4763C57.1603 26.6501 57.2376 26.8123 57.3611 26.9358C57.4846 27.0593 57.6468 27.1366 57.8205 27.1548C58.3525 27.2063 58.8645 27.3842 59.314 27.6735C59.7634 27.9628 60.1372 28.3552 60.4045 28.8181C60.6717 29.281 60.8245 29.801 60.8503 30.3349C60.876 30.8688 60.774 31.4011 60.5526 31.8876C60.4815 32.0473 60.4675 32.2265 60.5128 32.3953C60.5581 32.5641 60.66 32.7122 60.8014 32.8148C61.2362 33.1255 61.5906 33.5354 61.8351 34.0106C62.0796 34.4858 62.2072 35.0125 62.2072 35.5469C62.2072 36.0813 62.0796 36.6079 61.8351 37.0831C61.5906 37.5583 61.2362 37.9683 60.8014 38.2789C60.6601 38.3814 60.5582 38.5293 60.5129 38.698C60.4676 38.8666 60.4816 39.0456 60.5526 39.2052C60.7746 39.6918 60.8769 40.2246 60.8509 40.7589C60.8249 41.2932 60.6715 41.8135 60.4033 42.2764C60.2601 42.5102 60.0859 42.7234 59.8853 42.9102H53.7205C55.298 41.8457 56.4922 40.303 57.1273 38.509C57.7624 36.715 57.8048 34.7645 57.2482 32.9446C56.6917 31.1247 55.5656 29.5316 54.0358 28.3996C52.5059 27.2677 50.6531 26.6567 48.75 26.6567C46.8469 26.6567 44.9941 27.2677 43.4642 28.3996C41.9344 29.5316 40.8083 31.1247 40.2518 32.9446C39.6952 34.7645 39.7376 36.715 40.3727 38.509C41.0078 40.303 42.202 41.8457 43.7795 42.9102H37.6147C37.4139 42.7229 37.2393 42.5094 37.0957 42.2754C36.8279 41.8126 36.6746 41.2924 36.6488 40.7583C36.623 40.2242 36.7254 39.6916 36.9474 39.2052C37.0184 39.0456 37.0324 38.8666 36.9871 38.698C36.9418 38.5293 36.8399 38.3814 36.6986 38.2789C36.2638 37.9683 35.9094 37.5583 35.6649 37.0831C35.4204 36.6079 35.2928 36.0813 35.2928 35.5469C35.2928 35.0125 35.4204 34.4858 35.6649 34.0106C35.9094 33.5354 36.2638 33.1255 36.6986 32.8148C36.84 32.7122 36.9419 32.5641 36.9872 32.3953C37.0325 32.2265 37.0185 32.0473 36.9474 31.8876C36.6195 31.1797 36.5517 30.3788 36.7561 29.6259C36.9604 28.873 37.4238 28.2162 38.0646 27.7712C38.0859 27.753 38.1083 27.7387 38.1276 27.7195C38.5902 27.4065 39.1229 27.2125 39.6784 27.1548C39.8522 27.1366 40.0144 27.0593 40.1379 26.9358C40.2614 26.8123 40.3387 26.6501 40.3569 26.4763C40.4083 25.9438 40.5862 25.4313 40.8757 24.9814C41.1653 24.5315 41.5581 24.1573 42.0215 23.8899C42.4849 23.6226 43.0055 23.4698 43.5398 23.4443C44.0742 23.4188 44.607 23.5213 45.0938 23.7433C45.2533 23.8146 45.4325 23.8289 45.6013 23.7838C45.7702 23.7387 45.9183 23.6369 46.021 23.4955C46.3319 23.0606 46.742 22.7063 47.2174 22.4618C47.6927 22.2173 48.2195 22.0897 48.7541 22.0897C49.2886 22.0897 49.8154 22.2173 50.2907 22.4618C50.7661 22.7063 51.1762 23.0606 51.4871 23.4955H51.483ZM48.75 42.9102C47.2937 42.9102 45.8701 42.4783 44.6592 41.6692C43.4483 40.8601 42.5045 39.7101 41.9472 38.3647C41.3899 37.0192 41.2441 35.5387 41.5282 34.1104C41.8123 32.682 42.5136 31.37 43.5434 30.3403C44.5731 29.3105 45.8852 28.6092 47.3135 28.3251C48.7418 28.041 50.2223 28.1868 51.5678 28.7441C52.9133 29.3014 54.0633 30.2452 54.8723 31.4561C55.6814 32.6669 56.1133 34.0906 56.1133 35.5469C56.1111 37.4991 55.3347 39.3707 53.9543 40.7511C52.5738 42.1315 50.7022 42.908 48.75 42.9102ZM49.0039 19.4766V20.5938C48.9186 20.5938 48.8363 20.5674 48.75 20.5674C48.0755 20.569 47.4085 20.7095 46.7906 20.9801C46.1727 21.2508 45.6172 21.6458 45.1588 22.1406C44.5143 21.9383 43.8348 21.8721 43.1635 21.9462C42.4921 22.0203 41.8434 22.2331 41.2586 22.5712C40.6738 22.9092 40.1657 23.3651 39.7664 23.9099C39.3671 24.4547 39.0854 25.0765 38.9391 25.7359C38.7351 25.7903 38.5349 25.8582 38.3398 25.9391V19.4766L43.6719 8.81258L49.0039 19.4766ZM7.87109 1.77734H42.9102V6.34766H40.3711V4.0625C40.3711 3.86048 40.2908 3.66673 40.148 3.52388C40.0051 3.38103 39.8114 3.30078 39.6094 3.30078C39.4074 3.30078 39.2136 3.38103 39.0708 3.52388C38.9279 3.66673 38.8477 3.86048 38.8477 4.0625V6.34766H36.3086V4.0625C36.3086 3.86048 36.2283 3.66673 36.0855 3.52388C35.9426 3.38103 35.7489 3.30078 35.5469 3.30078C35.3449 3.30078 35.1511 3.38103 35.0083 3.52388C34.8654 3.66673 34.7852 3.86048 34.7852 4.0625V6.34766H32.2461V4.0625C32.2461 3.86048 32.1658 3.66673 32.023 3.52388C31.8801 3.38103 31.6864 3.30078 31.4844 3.30078C31.2824 3.30078 31.0886 3.38103 30.9458 3.52388C30.8029 3.66673 30.7227 3.86048 30.7227 4.0625V6.34766H28.1836V4.0625C28.1836 3.86048 28.1033 3.66673 27.9605 3.52388C27.8176 3.38103 27.6239 3.30078 27.4219 3.30078C27.2199 3.30078 27.0261 3.38103 26.8833 3.52388C26.7404 3.66673 26.6602 3.86048 26.6602 4.0625V6.34766H24.1211V4.0625C24.1211 3.86048 24.0408 3.66673 23.898 3.52388C23.7551 3.38103 23.5614 3.30078 23.3594 3.30078C23.1574 3.30078 22.9636 3.38103 22.8208 3.52388C22.6779 3.66673 22.5977 3.86048 22.5977 4.0625V6.34766H20.0586V4.0625C20.0586 3.86048 19.9783 3.66673 19.8355 3.52388C19.6926 3.38103 19.4989 3.30078 19.2969 3.30078C19.0949 3.30078 18.9011 3.38103 18.7583 3.52388C18.6154 3.66673 18.5352 3.86048 18.5352 4.0625V6.34766H15.9961V4.0625C15.9961 3.86048 15.9158 3.66673 15.773 3.52388C15.6301 3.38103 15.4364 3.30078 15.2344 3.30078C15.0324 3.30078 14.8386 3.38103 14.6958 3.52388C14.5529 3.66673 14.4727 3.86048 14.4727 4.0625V6.34766H11.9336V4.0625C11.9336 3.86048 11.8533 3.66673 11.7105 3.52388C11.5676 3.38103 11.3739 3.30078 11.1719 3.30078C10.9699 3.30078 10.7761 3.38103 10.6333 3.52388C10.4904 3.66673 10.4102 3.86048 10.4102 4.0625V6.34766H7.87109V1.77734ZM7.58063 7.87109H42.4389L37.1069 18.5352H2.24859L7.58063 7.87109ZM1.77734 20.0586H36.8164V26.8379C36.5302 27.086 36.2745 27.3673 36.0547 27.6758H30.0544C28.7472 26.0878 27.1047 24.809 25.2448 23.931C23.3849 23.053 21.3536 22.5976 19.2969 22.5976C17.2401 22.5976 15.2089 23.053 13.3489 23.931C11.489 24.809 9.84652 26.0878 8.53938 27.6758H1.77734V20.0586ZM1.77734 29.1992H8.90399C9.01955 29.1993 9.1336 29.173 9.23745 29.1223C9.3413 29.0716 9.4322 28.9979 9.5032 28.9067C10.6639 27.4165 12.1493 26.2108 13.8464 25.3815C15.5435 24.5521 17.4075 24.1211 19.2964 24.1211C21.1853 24.1211 23.0492 24.5521 24.7463 25.3815C26.4434 26.2108 27.9289 27.4165 29.0895 28.9067C29.1606 28.9978 29.2516 29.0714 29.3554 29.1221C29.4592 29.1728 29.5732 29.1992 29.6888 29.1992H35.3194C35.0665 30.1021 35.0767 31.0584 35.3488 31.9556C34.8514 32.4123 34.4542 32.9673 34.1825 33.5855C33.9109 34.2037 33.7706 34.8716 33.7706 35.5469C33.7706 36.2221 33.9109 36.89 34.1825 37.5082C34.4542 38.1264 34.8514 38.6815 35.3488 39.1381C35.1576 39.7601 35.0919 40.4138 35.1556 41.0613C35.2192 41.7089 35.4109 42.3373 35.7195 42.9102H35.0391C34.6636 42.9105 34.2939 43.0033 33.9629 43.1804C33.6318 43.3576 33.3495 43.6136 33.1409 43.9258H29.6877C29.5722 43.9258 29.4582 43.9522 29.3544 44.0029C29.2505 44.0536 29.1596 44.1272 29.0885 44.2183C27.9279 45.7085 26.4424 46.9142 24.7453 47.7435C23.0482 48.5729 21.1842 49.0039 19.2954 49.0039C17.4065 49.0039 15.5425 48.5729 13.8454 47.7435C12.1483 46.9142 10.6628 45.7085 9.50219 44.2183C9.43118 44.1271 9.34028 44.0534 9.23644 44.0027C9.13259 43.952 9.01853 43.9257 8.90297 43.9258H1.77734V29.1992ZM1.77734 45.4492H8.53938C9.84652 47.0372 11.489 48.316 13.3489 49.194C15.2089 50.072 17.2401 50.5274 19.2969 50.5274C21.3536 50.5274 23.3849 50.072 25.2448 49.194C27.1047 48.316 28.7472 47.0372 30.0544 45.4492H32.7742C32.823 45.8734 32.9896 46.2755 33.2553 46.6097C33.521 46.944 33.8751 47.1971 34.2773 47.3403V56.1133H1.77734V45.4492ZM32.8941 63.2227H4.0625C3.4566 63.2221 2.87568 62.9812 2.44724 62.5528C2.01881 62.1243 1.77788 61.5434 1.77734 60.9375V57.6367H34.2773V60.3159C33.9931 60.4123 33.7311 60.5648 33.5068 60.7642C33.2825 60.9636 33.1005 61.206 32.9716 61.477C32.8426 61.748 32.7693 62.0422 32.756 62.342C32.7427 62.6418 32.7896 62.9413 32.8941 63.2227ZM62.4609 63.2227H35.0391C34.837 63.2227 34.6433 63.1424 34.5004 62.9996C34.3576 62.8567 34.2773 62.663 34.2773 62.4609C34.2773 62.2589 34.3576 62.0652 34.5004 61.9223C34.6433 61.7795 34.837 61.6992 35.0391 61.6992H62.4609C62.663 61.6992 62.8567 61.7795 62.9996 61.9223C63.1424 62.0652 63.2227 62.2589 63.2227 62.4609C63.2227 62.663 63.1424 62.8567 62.9996 62.9996C62.8567 63.1424 62.663 63.2227 62.4609 63.2227Z"/>
</mask>
<path d="M63.2227 60.3159V47.3403C63.7302 47.1612 64.158 46.8083 64.4303 46.3441C64.7027 45.8799 64.8021 45.3343 64.7109 44.8039C64.6197 44.2734 64.3438 43.7924 63.932 43.4458C63.5202 43.0992 62.9991 42.9095 62.4609 42.9102H61.7795C62.0884 42.3375 62.2804 41.7091 62.3443 41.0615C62.4081 40.4139 62.3424 39.7601 62.1512 39.1381C62.6486 38.6815 63.0458 38.1264 63.3175 37.5082C63.5891 36.89 63.7294 36.2221 63.7294 35.5469C63.7294 34.8716 63.5891 34.2037 63.3175 33.5855C63.0458 32.9673 62.6486 32.4123 62.1512 31.9556C62.3536 31.3115 62.42 30.6324 62.3462 29.9613C62.2724 29.2902 62.06 28.6418 61.7225 28.057C61.3849 27.4723 60.9296 26.9641 60.3854 26.5645C59.8412 26.165 59.2199 25.8828 58.5609 25.7359C58.4146 25.0765 58.1329 24.4547 57.7336 23.9099C57.3343 23.3651 56.8262 22.9092 56.2414 22.5712C55.6566 22.2331 55.0079 22.0203 54.3365 21.9462C53.6652 21.8721 52.9857 21.9383 52.3412 22.1406C51.8354 21.6038 51.2156 21.1873 50.5273 20.9219V19.2969C50.5273 19.1788 50.4999 19.0623 50.4471 18.9566L44.4336 6.92961V1.01562C44.4336 0.813605 44.3533 0.619858 44.2105 0.477009C44.0676 0.334159 43.8739 0.253906 43.6719 0.253906H7.10938C6.90735 0.253906 6.71361 0.334159 6.57076 0.477009C6.42791 0.619858 6.34766 0.813605 6.34766 1.01562V6.92961L0.334141 18.9566C0.281382 19.0623 0.253914 19.1788 0.253906 19.2969V60.9375C0.254982 61.9473 0.656588 62.9154 1.37061 63.6294C2.08462 64.3434 3.05273 64.745 4.0625 64.7461H34.5312C34.6237 64.7439 34.716 64.7361 34.8075 64.7227C34.8842 64.7346 34.9615 64.7424 35.0391 64.7461H62.4609C62.9991 64.7468 63.5202 64.557 63.932 64.2104C64.3438 63.8639 64.6197 63.3828 64.7109 62.8524C64.8021 62.322 64.7027 61.7764 64.4303 61.3122C64.158 60.848 63.7302 60.4951 63.2227 60.3159ZM62.4609 44.4336C62.663 44.4336 62.8567 44.5138 62.9996 44.6567C63.1424 44.7995 63.2227 44.9933 63.2227 45.1953C63.2227 45.3973 63.1424 45.5911 62.9996 45.7339C62.8567 45.8768 62.663 45.957 62.4609 45.957H35.0391C34.837 45.957 34.6433 45.8768 34.5004 45.7339C34.3576 45.5911 34.2773 45.3973 34.2773 45.1953C34.2773 44.9933 34.3576 44.7995 34.5004 44.6567C34.6433 44.5138 34.837 44.4336 35.0391 44.4336H62.4609ZM61.6992 47.4805V60.1758H35.8008V47.4805H61.6992ZM51.483 23.4955C51.5857 23.6369 51.7339 23.7387 51.9027 23.7838C52.0716 23.8289 52.2508 23.8146 52.4103 23.7433C52.8968 23.5223 53.4291 23.4206 53.9628 23.4466C54.4965 23.4727 55.0163 23.6257 55.4791 23.8929C55.9418 24.1602 56.3341 24.534 56.6233 24.9833C56.9125 25.4326 57.0904 25.9445 57.1421 26.4763C57.1603 26.6501 57.2376 26.8123 57.3611 26.9358C57.4846 27.0593 57.6468 27.1366 57.8205 27.1548C58.3525 27.2063 58.8645 27.3842 59.314 27.6735C59.7634 27.9628 60.1372 28.3552 60.4045 28.8181C60.6717 29.281 60.8245 29.801 60.8503 30.3349C60.876 30.8688 60.774 31.4011 60.5526 31.8876C60.4815 32.0473 60.4675 32.2265 60.5128 32.3953C60.5581 32.5641 60.66 32.7122 60.8014 32.8148C61.2362 33.1255 61.5906 33.5354 61.8351 34.0106C62.0796 34.4858 62.2072 35.0125 62.2072 35.5469C62.2072 36.0813 62.0796 36.6079 61.8351 37.0831C61.5906 37.5583 61.2362 37.9683 60.8014 38.2789C60.6601 38.3814 60.5582 38.5293 60.5129 38.698C60.4676 38.8666 60.4816 39.0456 60.5526 39.2052C60.7746 39.6918 60.8769 40.2246 60.8509 40.7589C60.8249 41.2932 60.6715 41.8135 60.4033 42.2764C60.2601 42.5102 60.0859 42.7234 59.8853 42.9102H53.7205C55.298 41.8457 56.4922 40.303 57.1273 38.509C57.7624 36.715 57.8048 34.7645 57.2482 32.9446C56.6917 31.1247 55.5656 29.5316 54.0358 28.3996C52.5059 27.2677 50.6531 26.6567 48.75 26.6567C46.8469 26.6567 44.9941 27.2677 43.4642 28.3996C41.9344 29.5316 40.8083 31.1247 40.2518 32.9446C39.6952 34.7645 39.7376 36.715 40.3727 38.509C41.0078 40.303 42.202 41.8457 43.7795 42.9102H37.6147C37.4139 42.7229 37.2393 42.5094 37.0957 42.2754C36.8279 41.8126 36.6746 41.2924 36.6488 40.7583C36.623 40.2242 36.7254 39.6916 36.9474 39.2052C37.0184 39.0456 37.0324 38.8666 36.9871 38.698C36.9418 38.5293 36.8399 38.3814 36.6986 38.2789C36.2638 37.9683 35.9094 37.5583 35.6649 37.0831C35.4204 36.6079 35.2928 36.0813 35.2928 35.5469C35.2928 35.0125 35.4204 34.4858 35.6649 34.0106C35.9094 33.5354 36.2638 33.1255 36.6986 32.8148C36.84 32.7122 36.9419 32.5641 36.9872 32.3953C37.0325 32.2265 37.0185 32.0473 36.9474 31.8876C36.6195 31.1797 36.5517 30.3788 36.7561 29.6259C36.9604 28.873 37.4238 28.2162 38.0646 27.7712C38.0859 27.753 38.1083 27.7387 38.1276 27.7195C38.5902 27.4065 39.1229 27.2125 39.6784 27.1548C39.8522 27.1366 40.0144 27.0593 40.1379 26.9358C40.2614 26.8123 40.3387 26.6501 40.3569 26.4763C40.4083 25.9438 40.5862 25.4313 40.8757 24.9814C41.1653 24.5315 41.5581 24.1573 42.0215 23.8899C42.4849 23.6226 43.0055 23.4698 43.5398 23.4443C44.0742 23.4188 44.607 23.5213 45.0938 23.7433C45.2533 23.8146 45.4325 23.8289 45.6013 23.7838C45.7702 23.7387 45.9183 23.6369 46.021 23.4955C46.3319 23.0606 46.742 22.7063 47.2174 22.4618C47.6927 22.2173 48.2195 22.0897 48.7541 22.0897C49.2886 22.0897 49.8154 22.2173 50.2907 22.4618C50.7661 22.7063 51.1762 23.0606 51.4871 23.4955H51.483ZM48.75 42.9102C47.2937 42.9102 45.8701 42.4783 44.6592 41.6692C43.4483 40.8601 42.5045 39.7101 41.9472 38.3647C41.3899 37.0192 41.2441 35.5387 41.5282 34.1104C41.8123 32.682 42.5136 31.37 43.5434 30.3403C44.5731 29.3105 45.8852 28.6092 47.3135 28.3251C48.7418 28.041 50.2223 28.1868 51.5678 28.7441C52.9133 29.3014 54.0633 30.2452 54.8723 31.4561C55.6814 32.6669 56.1133 34.0906 56.1133 35.5469C56.1111 37.4991 55.3347 39.3707 53.9543 40.7511C52.5738 42.1315 50.7022 42.908 48.75 42.9102ZM49.0039 19.4766V20.5938C48.9186 20.5938 48.8363 20.5674 48.75 20.5674C48.0755 20.569 47.4085 20.7095 46.7906 20.9801C46.1727 21.2508 45.6172 21.6458 45.1588 22.1406C44.5143 21.9383 43.8348 21.8721 43.1635 21.9462C42.4921 22.0203 41.8434 22.2331 41.2586 22.5712C40.6738 22.9092 40.1657 23.3651 39.7664 23.9099C39.3671 24.4547 39.0854 25.0765 38.9391 25.7359C38.7351 25.7903 38.5349 25.8582 38.3398 25.9391V19.4766L43.6719 8.81258L49.0039 19.4766ZM7.87109 1.77734H42.9102V6.34766H40.3711V4.0625C40.3711 3.86048 40.2908 3.66673 40.148 3.52388C40.0051 3.38103 39.8114 3.30078 39.6094 3.30078C39.4074 3.30078 39.2136 3.38103 39.0708 3.52388C38.9279 3.66673 38.8477 3.86048 38.8477 4.0625V6.34766H36.3086V4.0625C36.3086 3.86048 36.2283 3.66673 36.0855 3.52388C35.9426 3.38103 35.7489 3.30078 35.5469 3.30078C35.3449 3.30078 35.1511 3.38103 35.0083 3.52388C34.8654 3.66673 34.7852 3.86048 34.7852 4.0625V6.34766H32.2461V4.0625C32.2461 3.86048 32.1658 3.66673 32.023 3.52388C31.8801 3.38103 31.6864 3.30078 31.4844 3.30078C31.2824 3.30078 31.0886 3.38103 30.9458 3.52388C30.8029 3.66673 30.7227 3.86048 30.7227 4.0625V6.34766H28.1836V4.0625C28.1836 3.86048 28.1033 3.66673 27.9605 3.52388C27.8176 3.38103 27.6239 3.30078 27.4219 3.30078C27.2199 3.30078 27.0261 3.38103 26.8833 3.52388C26.7404 3.66673 26.6602 3.86048 26.6602 4.0625V6.34766H24.1211V4.0625C24.1211 3.86048 24.0408 3.66673 23.898 3.52388C23.7551 3.38103 23.5614 3.30078 23.3594 3.30078C23.1574 3.30078 22.9636 3.38103 22.8208 3.52388C22.6779 3.66673 22.5977 3.86048 22.5977 4.0625V6.34766H20.0586V4.0625C20.0586 3.86048 19.9783 3.66673 19.8355 3.52388C19.6926 3.38103 19.4989 3.30078 19.2969 3.30078C19.0949 3.30078 18.9011 3.38103 18.7583 3.52388C18.6154 3.66673 18.5352 3.86048 18.5352 4.0625V6.34766H15.9961V4.0625C15.9961 3.86048 15.9158 3.66673 15.773 3.52388C15.6301 3.38103 15.4364 3.30078 15.2344 3.30078C15.0324 3.30078 14.8386 3.38103 14.6958 3.52388C14.5529 3.66673 14.4727 3.86048 14.4727 4.0625V6.34766H11.9336V4.0625C11.9336 3.86048 11.8533 3.66673 11.7105 3.52388C11.5676 3.38103 11.3739 3.30078 11.1719 3.30078C10.9699 3.30078 10.7761 3.38103 10.6333 3.52388C10.4904 3.66673 10.4102 3.86048 10.4102 4.0625V6.34766H7.87109V1.77734ZM7.58063 7.87109H42.4389L37.1069 18.5352H2.24859L7.58063 7.87109ZM1.77734 20.0586H36.8164V26.8379C36.5302 27.086 36.2745 27.3673 36.0547 27.6758H30.0544C28.7472 26.0878 27.1047 24.809 25.2448 23.931C23.3849 23.053 21.3536 22.5976 19.2969 22.5976C17.2401 22.5976 15.2089 23.053 13.3489 23.931C11.489 24.809 9.84652 26.0878 8.53938 27.6758H1.77734V20.0586ZM1.77734 29.1992H8.90399C9.01955 29.1993 9.1336 29.173 9.23745 29.1223C9.3413 29.0716 9.4322 28.9979 9.5032 28.9067C10.6639 27.4165 12.1493 26.2108 13.8464 25.3815C15.5435 24.5521 17.4075 24.1211 19.2964 24.1211C21.1853 24.1211 23.0492 24.5521 24.7463 25.3815C26.4434 26.2108 27.9289 27.4165 29.0895 28.9067C29.1606 28.9978 29.2516 29.0714 29.3554 29.1221C29.4592 29.1728 29.5732 29.1992 29.6888 29.1992H35.3194C35.0665 30.1021 35.0767 31.0584 35.3488 31.9556C34.8514 32.4123 34.4542 32.9673 34.1825 33.5855C33.9109 34.2037 33.7706 34.8716 33.7706 35.5469C33.7706 36.2221 33.9109 36.89 34.1825 37.5082C34.4542 38.1264 34.8514 38.6815 35.3488 39.1381C35.1576 39.7601 35.0919 40.4138 35.1556 41.0613C35.2192 41.7089 35.4109 42.3373 35.7195 42.9102H35.0391C34.6636 42.9105 34.2939 43.0033 33.9629 43.1804C33.6318 43.3576 33.3495 43.6136 33.1409 43.9258H29.6877C29.5722 43.9258 29.4582 43.9522 29.3544 44.0029C29.2505 44.0536 29.1596 44.1272 29.0885 44.2183C27.9279 45.7085 26.4424 46.9142 24.7453 47.7435C23.0482 48.5729 21.1842 49.0039 19.2954 49.0039C17.4065 49.0039 15.5425 48.5729 13.8454 47.7435C12.1483 46.9142 10.6628 45.7085 9.50219 44.2183C9.43118 44.1271 9.34028 44.0534 9.23644 44.0027C9.13259 43.952 9.01853 43.9257 8.90297 43.9258H1.77734V29.1992ZM1.77734 45.4492H8.53938C9.84652 47.0372 11.489 48.316 13.3489 49.194C15.2089 50.072 17.2401 50.5274 19.2969 50.5274C21.3536 50.5274 23.3849 50.072 25.2448 49.194C27.1047 48.316 28.7472 47.0372 30.0544 45.4492H32.7742C32.823 45.8734 32.9896 46.2755 33.2553 46.6097C33.521 46.944 33.8751 47.1971 34.2773 47.3403V56.1133H1.77734V45.4492ZM32.8941 63.2227H4.0625C3.4566 63.2221 2.87568 62.9812 2.44724 62.5528C2.01881 62.1243 1.77788 61.5434 1.77734 60.9375V57.6367H34.2773V60.3159C33.9931 60.4123 33.7311 60.5648 33.5068 60.7642C33.2825 60.9636 33.1005 61.206 32.9716 61.477C32.8426 61.748 32.7693 62.0422 32.756 62.342C32.7427 62.6418 32.7896 62.9413 32.8941 63.2227ZM62.4609 63.2227H35.0391C34.837 63.2227 34.6433 63.1424 34.5004 62.9996C34.3576 62.8567 34.2773 62.663 34.2773 62.4609C34.2773 62.2589 34.3576 62.0652 34.5004 61.9223C34.6433 61.7795 34.837 61.6992 35.0391 61.6992H62.4609C62.663 61.6992 62.8567 61.7795 62.9996 61.9223C63.1424 62.0652 63.2227 62.2589 63.2227 62.4609C63.2227 62.663 63.1424 62.8567 62.9996 62.9996C62.8567 63.1424 62.663 63.2227 62.4609 63.2227Z" stroke="#003276" stroke-width="4" mask="url(#path-24-inside-1_2115_3228)"/>
</svg>
