<svg width="66" height="61" viewBox="0 0 66 61" fill="none" xmlns="http://www.w3.org/2000/svg">
<path d="M29.2595 46.65H31.6071V59.8667H29.2595V46.65Z" fill="#463C4B" stroke="#003276" stroke-width="2"/>
<path d="M28.2595 49.9977H30.4333V60.8667H28.2595V49.9977Z" fill="#555A6E"/>
<path d="M30.9333 4.85346C42.4137 5.12004 51.6714 14.5426 51.6714 26.0858C51.6714 37.6289 42.4137 47.0515 30.9333 47.318V43.9693C40.5683 43.7037 48.3238 35.7839 48.3238 26.0858C48.3238 16.3876 40.5683 8.46784 30.9333 8.20216V4.85346Z" fill="#4182C3" stroke="#003276"/>
<path d="M22.9119 16.2167H10.8076C9.08867 16.2167 7.69521 14.8232 7.69521 13.1043C7.69521 12.4562 7.22169 11.9378 6.65652 11.8764L22.9119 16.2167ZM22.9119 16.2167V22.9119H13.0428C8.7929 22.9119 5.3476 19.4666 5.3476 15.2167V13.0429C5.3476 12.3509 5.94485 11.7993 6.65646 11.8764L22.9119 16.2167ZM19.5643 34.694H20.5643V33.694V30.3464H31.6071V31.5202C31.6071 35.7702 28.1618 39.2155 23.9119 39.2155H19.5643H18.5643V40.2155V45.65C18.5643 47.4988 17.0655 48.9976 15.2166 48.9976H13.0428C12.3946 48.9976 11.869 48.472 11.869 47.8238C11.869 47.1756 12.3946 46.65 13.0428 46.65H14.0428V45.65V38.0417C14.0428 36.1928 15.5416 34.694 17.3905 34.694H19.5643ZM48.9976 35.8679V36.8679H49.9976H60.8666C62.7155 36.8679 64.2143 38.3666 64.2143 40.2155V43.4762C64.2143 44.1244 63.6887 44.65 63.0405 44.65C62.3923 44.65 61.8666 44.1244 61.8666 43.4762V42.3893V41.3893H60.8666H46.7369C45.4883 41.3893 44.4762 40.3771 44.4762 39.1286V33.6071H48.9976V35.8679Z" fill="#F0915A" stroke="#003276" stroke-width="2"/>
<path d="M58.7798 5.43452V6.43452H59.7798H64.1274C64.1504 6.43452 64.1725 6.44368 64.1888 6.45998C64.2051 6.47627 64.2143 6.49837 64.2143 6.52143V8.69524C64.2143 11.7447 61.7423 14.2167 58.6929 14.2167H56.519H55.519V15.2167V21.4425C55.519 29.1402 50.305 35.6219 43.2143 37.5463L42.4762 37.7466V38.5113V39.1286V40.1286H43.4762H54.3452C56.1941 40.1286 57.6929 41.6274 57.6929 43.4762V46.7369C57.6929 47.3851 57.1672 47.9107 56.519 47.9107C55.8708 47.9107 55.3452 47.3851 55.3452 46.7369V45.65V44.65H54.3452H40.2155C38.9669 44.65 37.9548 43.6379 37.9548 42.3893V38.9458V38.1224L37.1467 37.9644C35.4329 37.6293 33.8579 36.7909 32.623 35.5564C32.6229 35.5563 32.6229 35.5563 32.6229 35.5563L31.1404 34.0738L30.8475 33.781H30.4333H21.1036H20.4297L20.1767 34.4056C19.034 37.2276 16.2699 39.2155 13.0429 39.2155H8.69524H7.69524V40.2155V45.65C7.69524 47.4988 6.19644 48.9976 4.34762 48.9976H2.17381C1.52561 48.9976 1 48.472 1 47.8238C1 47.1756 1.52561 46.65 2.17381 46.65H3.17381V45.65V38.0417C3.17381 36.1928 4.67261 34.694 6.52143 34.694H8.69524H9.69524V33.694V26.0857C9.69524 20.6352 14.1137 16.2167 19.5643 16.2167H36.9548C39.3079 16.2167 41.2155 14.3091 41.2155 11.956V6.43452H47.8238H48.8238V5.43452V2.17381C48.8238 1.52561 49.3494 1 49.9976 1H56.519C57.7676 1 58.7798 2.01213 58.7798 3.26071V5.43452Z" fill="#FAB991" stroke="#393939" stroke-width="2"/>
<path d="M55.4322 5.43452H59.7798V3.26071C59.7798 1.45985 58.3199 0 56.5191 0H53.2584V3.26071C53.2584 4.46134 54.2315 5.43452 55.4322 5.43452Z" fill="#F0915A"/>
<path d="M42.3893 13.1298C39.9401 13.1298 37.9548 11.1443 37.9548 8.69524C37.9548 4.44531 41.4001 1 45.65 1H47.0479C46.9033 1.36308 46.8238 1.75916 46.8238 2.17381V8.69524C46.8238 11.1443 44.8384 13.1298 42.3893 13.1298Z" fill="#463C4B" stroke="#3E3E3E" stroke-width="2"/>
<path d="M51.0845 4.34764C51.6848 4.34764 52.1714 3.86101 52.1714 3.26073C52.1714 2.66045 51.6848 2.17383 51.0845 2.17383C50.4842 2.17383 49.9976 2.66045 49.9976 3.26073C49.9976 3.86101 50.4842 4.34764 51.0845 4.34764Z" fill="#463C4B"/>
<path d="M56.519 4.34764C57.1193 4.34764 57.6059 3.86101 57.6059 3.26073C57.6059 2.66045 57.1193 2.17383 56.519 2.17383C55.9188 2.17383 55.4321 2.66045 55.4321 3.26073C55.4321 3.86101 55.9188 4.34764 56.519 4.34764Z" fill="#463C4B"/>
<path d="M61.9535 6.52148V8.69528C61.9535 10.4962 60.4937 11.956 58.6928 11.956H52.1714C50.3705 11.956 48.9106 13.4158 48.9106 15.2167H58.6928C62.2945 15.2167 65.2142 12.297 65.2142 8.69528V6.52148C65.2142 6.23321 65.0997 5.95675 64.8959 5.75292C64.692 5.54908 64.4156 5.43457 64.1273 5.43457H63.0404C62.7521 5.43457 62.4757 5.54908 62.2718 5.75292C62.068 5.95675 61.9535 6.23321 61.9535 6.52148Z" fill="#F0915A"/>
<path d="M63.5839 8.69528C64.4843 8.69528 65.2143 7.96529 65.2143 7.06493V6.52148C65.2143 6.23321 65.0998 5.95675 64.8959 5.75292C64.6921 5.54908 64.4156 5.43457 64.1274 5.43457H63.0405C62.7522 5.43457 62.4757 5.54908 62.2719 5.75292C62.0681 5.95675 61.9536 6.23321 61.9536 6.52148V7.06493C61.9536 7.96529 62.6835 8.69528 63.5839 8.69528Z" fill="#463C4B"/>
<path d="M48.9106 15.2167H56.519V18.4774H48.9106V15.2167Z" fill="#F0915A"/>
<path d="M30.4333 47.3238C18.723 47.3238 9.19525 37.796 9.19525 26.0858C9.19525 14.3755 18.723 4.84766 30.4333 4.84766C31.3578 4.84766 32.1072 5.5971 32.1072 6.52147C32.1072 7.44583 31.3578 8.19528 30.4333 8.19528C20.5681 8.19528 12.5429 16.2204 12.5429 26.0858C12.5429 35.9511 20.5681 43.9762 30.4333 43.9762C31.3578 43.9762 32.1072 44.7257 32.1072 45.65C32.1072 46.5744 31.3578 47.3238 30.4333 47.3238Z" fill="#64AFE1" stroke="#003276"/>
</svg>
