<svg xmlns="http://www.w3.org/2000/svg" xmlns:xlink="http://www.w3.org/1999/xlink" width="40" height="40" viewBox="0 0 40 40">
  <defs>
    <clipPath id="clip-path">
      <circle id="Ellipse_28" data-name="Ellipse 28" cx="20" cy="20" r="20" transform="translate(1488 5025)" fill="#fff"/>
    </clipPath>
  </defs>
  <g id="Mask_Group_10" data-name="Mask Group 10" transform="translate(-1488 -5025)" clip-path="url(#clip-path)">
    <path id="twitter" d="M.562,21.318A14.074,14.074,0,0,0,8.118,23.5,13.82,13.82,0,0,0,22.138,9.444,5.739,5.739,0,0,0,24.21,5.559a.759.759,0,0,0-1.142-.654,3.134,3.134,0,0,1-2.548.427,5.412,5.412,0,0,0-6.411-.863A5.207,5.207,0,0,0,11.281,9.35,12.558,12.558,0,0,1,3.136,4.9.759.759,0,0,0,1.9,5a5.282,5.282,0,0,0-.118,5.216A.789.789,0,0,0,1.12,11,5.345,5.345,0,0,0,2.982,15.04a.757.757,0,0,0-.194.785,5.44,5.44,0,0,0,3.079,3.3,8.824,8.824,0,0,1-4.806.8.758.758,0,0,0-.5,1.391Zm7.764-1.934a.758.758,0,0,0-.446-1.358,3.953,3.953,0,0,1-3.1-1.615,5.345,5.345,0,0,0,1.035-.166.758.758,0,0,0-.049-1.474,3.89,3.89,0,0,1-2.948-2.648,5.23,5.23,0,0,0,1.156.154.759.759,0,0,0,.431-1.39A3.765,3.765,0,0,1,2.789,6.775a14.09,14.09,0,0,0,9.334,4.166.756.756,0,0,0,.775-.927A3.7,3.7,0,0,1,14.828,5.8a3.875,3.875,0,0,1,4.737.719c.452.476,1.976.494,2.751.313a4.885,4.885,0,0,1-1.382,1.626.758.758,0,0,0-.322.658,12.322,12.322,0,0,1-3.393,9.054,12.41,12.41,0,0,1-9.1,3.8,12.727,12.727,0,0,1-4.083-.669,10.234,10.234,0,0,0,4.29-1.926Z" transform="translate(1495.791 5031.789)" fill="#003276"/>
  </g>
</svg>
