<svg width="69" height="69" viewBox="0 0 69 69" fill="none" xmlns="http://www.w3.org/2000/svg">
<path d="M9.48888 8.76367H33.838V21.413H9.48888V8.76367Z" fill="#DCFCFF"/>
<path d="M35.0239 22.6004H8.3015V7.57776H35.0239V22.6004ZM10.6748 20.227H32.6506V9.95107H10.6748V20.227Z" fill="#003276"/>
<path d="M34.7285 4.43896H8.58109C8.06126 4.43896 7.56272 4.64547 7.19514 5.01304C6.82757 5.38062 6.62106 5.87916 6.62106 6.399V9.96831C6.62106 10.4881 6.82757 10.9867 7.19514 11.3543C7.56272 11.7218 8.06126 11.9283 8.58109 11.9283H34.7278C35.2476 11.9283 35.7462 11.7218 36.1137 11.3543C36.4813 10.9867 36.6878 10.4881 36.6878 9.96831V6.399C36.6879 6.14163 36.6373 5.88678 36.5389 5.64898C36.4405 5.41118 36.2961 5.1951 36.1142 5.01309C35.9323 4.83107 35.7162 4.68669 35.4785 4.58818C35.2407 4.48967 34.9859 4.43896 34.7285 4.43896Z" fill="#898989"/>
<path d="M34.7285 13.115H8.58181C7.74748 13.1139 6.94766 12.7819 6.35777 12.1919C5.76788 11.6018 5.43607 10.8019 5.43512 9.96761V6.39902C5.43607 5.56483 5.76792 4.76508 6.35786 4.17528C6.94779 3.58548 7.74761 3.25381 8.58181 3.25305H34.7285C35.5627 3.25381 36.3625 3.58548 36.9524 4.17528C37.5424 4.76508 37.8742 5.56483 37.8752 6.39902V9.96833C37.874 10.8025 37.5421 11.6022 36.9523 12.1921C36.3624 12.782 35.5627 13.1139 34.7285 13.115ZM8.58181 5.62636C8.15559 5.62636 7.80843 5.9728 7.80843 6.39902V9.96833C7.80843 10.3946 8.15559 10.7424 8.58181 10.7424H34.7285C35.1547 10.7424 35.5019 10.3946 35.5019 9.96833V6.39902C35.5019 5.9728 35.1547 5.62636 34.7285 5.62636H8.58181Z" fill="#003276"/>
<path d="M8.47041 18.2562C6.10429 18.2562 4.18666 20.2867 4.18666 22.7923V59.4032C4.18666 62.2509 6.36735 64.5595 9.05691 64.5595H34.2534C36.943 64.5595 39.1237 62.2509 39.1237 59.4032V22.7923C39.1237 20.2874 37.2053 18.2562 34.8399 18.2562H8.47041Z" fill="#97C3FF"/>
<path d="M34.2534 65.7469H9.05691C5.71688 65.7469 3 62.9014 3 59.4033V22.7916C3 19.6362 5.45381 17.0703 8.47041 17.0703H34.8392C37.8558 17.0703 40.3096 19.637 40.3096 22.7916V59.4033C40.3096 62.9014 37.5927 65.7469 34.2534 65.7469ZM8.47041 19.4436C6.76266 19.4436 5.37331 20.9451 5.37331 22.7916V59.4033C5.37331 61.5926 7.02572 63.3743 9.05691 63.3743H34.2534C36.2846 63.3743 37.937 61.5926 37.937 59.4033V22.7916C37.937 20.9451 36.5477 19.4436 34.8399 19.4436H8.47041Z" fill="#003276"/>
<path d="M11.8759 44.5143H11.5373C8.89807 43.4247 7.69416 40.2852 9.02026 37.6732L10.9487 33.8768C11.3865 33.015 12.067 32.3001 12.9062 31.8204C13.7455 31.3407 14.7068 31.1171 15.6716 31.1772H16.4227" fill="#C98839"/>
<path d="M11.8759 45.7017H11.3023L11.0845 45.6119C10.3031 45.2873 9.59707 44.805 9.0105 44.1952C8.42394 43.5854 7.96946 42.8612 7.67548 42.0677C7.37663 41.2711 7.24776 40.4208 7.29715 39.5714C7.34654 38.722 7.5731 37.8923 7.96226 37.1357L9.89066 33.3392C10.4346 32.2717 11.2784 31.3862 12.3185 30.7915C13.3586 30.1968 14.5497 29.9187 15.7456 29.9913L16.4227 29.9899C16.7374 29.9899 17.0392 30.1149 17.2618 30.3374C17.4843 30.56 17.6093 30.8618 17.6093 31.1765C17.6093 31.4912 17.4843 31.7931 17.2618 32.0156C17.0392 32.2382 16.7374 32.3632 16.4227 32.3632H15.6716C14.1011 32.269 12.6895 33.074 12.0052 34.4166L10.0775 38.2109C9.83833 38.676 9.69896 39.1859 9.66839 39.708C9.63782 40.2301 9.71671 40.7528 9.90001 41.2426C10.2377 42.1551 10.9142 42.9022 11.7889 43.3284H11.8751C12.1899 43.3283 12.4917 43.4533 12.7143 43.6757C12.9369 43.8982 13.0621 44.2 13.0621 44.5147C13.0622 44.8294 12.9373 45.1313 12.7148 45.3539C12.4924 45.5765 12.1906 45.7016 11.8759 45.7017Z" fill="#003276"/>
<path d="M26.2552 31.1772H27.0063C27.9605 31.132 28.9075 31.3635 29.7333 31.8437C30.5592 32.3239 31.2288 33.0324 31.6616 33.884L33.5835 37.6804C34.9096 40.2924 33.7187 43.4319 31.0729 44.515H30.7416" fill="#C98839"/>
<path d="M31.3058 45.7017H30.7409C30.4262 45.7017 30.1243 45.5767 29.9018 45.3542C29.6792 45.1316 29.5542 44.8298 29.5542 44.5151C29.5542 44.2003 29.6792 43.8985 29.9018 43.676C30.1243 43.4534 30.4262 43.3284 30.7409 43.3284H30.8221C31.6957 42.9125 32.3712 42.1702 32.7031 41.2613C32.8876 40.7696 32.9671 40.2447 32.9364 39.7204C32.9057 39.1962 32.7655 38.6842 32.5248 38.2174L30.6022 34.4195C29.9337 33.1035 28.5444 32.3028 27.0587 32.3617L26.2537 32.3632C25.939 32.3632 25.6372 32.2381 25.4146 32.0156C25.1921 31.7931 25.0671 31.4912 25.0671 31.1765C25.0671 30.8618 25.1921 30.56 25.4146 30.3374C25.6372 30.1149 25.939 29.9898 26.2537 29.9898H27.0063C29.3695 29.8705 31.6292 31.1981 32.7196 33.3457L34.6422 37.1436C35.0278 37.9038 35.2523 38.7355 35.3015 39.5866C35.3507 40.4376 35.2237 41.2896 34.9283 42.0893C34.6339 42.8795 34.1795 43.6004 33.5935 44.2068C33.0075 44.8132 32.3026 45.292 31.5229 45.6133L31.3058 45.7017Z" fill="#003276"/>
<path d="M21.3411 29.1949C22.9261 29.195 24.4658 29.7243 25.7158 30.6989C26.9658 31.6735 27.8545 33.0376 28.2411 34.5748L31.0212 45.627C31.681 48.249 30.9091 50.8279 29.2703 52.6413C27.109 55.0326 23.2299 54.6545 21.3698 52.0217L21.2951 51.9154L21.2505 51.9793C19.3048 54.758 15.2116 54.9629 13.0733 52.3286C11.6099 50.526 10.9587 48.0693 11.6006 45.5803L14.4518 34.5309C14.8461 33.0036 15.7368 31.6506 16.9839 30.6847C18.2309 29.7188 19.7637 29.1948 21.3411 29.1949Z" fill="#FFC064"/>
<path d="M25.6435 55.4214C25.5162 55.4213 25.3889 55.4172 25.2618 55.4092C23.7797 55.3245 22.3733 54.7263 21.2843 53.7173C20.1735 54.7376 18.733 55.3248 17.2255 55.3718C15.2475 55.4444 13.3924 54.6071 12.1511 53.0776C10.3614 50.8724 9.74187 48.0327 10.4506 45.2842L13.3018 34.2355C13.7616 32.4531 14.8008 30.8741 16.2559 29.7467C17.711 28.6193 19.4996 28.0075 21.3403 28.0076C25.1512 28.0076 28.4617 30.5893 29.3911 34.2851L32.1712 45.3381C32.5272 46.7501 32.5291 48.2281 32.1765 49.641C31.8239 51.0539 31.1278 52.3578 30.1501 53.4369C28.9993 54.7106 27.3742 55.4214 25.6435 55.4214ZM21.2476 49.9151L22.2654 51.2333C23.051 52.3459 24.1679 52.9669 25.4042 53.0409C26.5527 53.1042 27.6409 52.6751 28.3906 51.8464C29.1064 51.0563 29.6161 50.1016 29.8743 49.0671C30.1325 48.0327 30.1311 46.9505 29.8705 45.9167L27.0903 34.8637C26.7693 33.5824 26.029 32.4452 24.9873 31.633C23.9455 30.8208 22.662 30.3803 21.3411 30.3816C20.0265 30.3816 18.7492 30.8186 17.7101 31.6239C16.6711 32.4291 15.9292 33.557 15.6011 34.8299L12.7491 45.8779C12.4911 46.8593 12.4693 47.888 12.6857 48.8795C12.9021 49.871 13.3505 50.7971 13.994 51.5819C14.3697 52.0496 14.8507 52.4218 15.3977 52.6683C15.9446 52.9147 16.5421 53.0284 17.1414 52.9999C17.7608 52.9812 18.3672 52.8175 18.9119 52.5221C19.4566 52.2266 19.9245 51.8076 20.278 51.2987L21.2476 49.9151Z" fill="#003276"/>
<path d="M59.6411 53.7158H47.3785C45.9404 53.7158 44.5613 54.2871 43.5444 55.304C42.5275 56.3208 41.9563 57.7 41.9563 59.1381C41.9563 60.5761 42.5275 61.9553 43.5444 62.9722C44.5613 63.989 45.9404 64.5603 47.3785 64.5603H59.6411C61.0792 64.5603 62.4583 63.989 63.4752 62.9722C64.4921 61.9553 65.0633 60.5761 65.0633 59.1381C65.0633 57.7 64.4921 56.3208 63.4752 55.304C62.4583 54.2871 61.0792 53.7158 59.6411 53.7158Z" fill="#FFD833"/>
<path d="M59.6411 65.747H47.3785C43.7344 65.747 40.7696 62.7821 40.7696 59.1373C40.7696 55.494 43.7344 52.5291 47.3785 52.5291H59.6411C63.2852 52.5291 66.25 55.494 66.25 59.1373C66.25 62.7821 63.2852 65.747 59.6411 65.747ZM47.3785 54.9025C46.2557 54.9038 45.1792 55.3504 44.3852 56.1442C43.5912 56.9381 43.1444 58.0145 43.1429 59.1373C43.1441 60.2604 43.5906 61.3371 44.3847 62.1313C45.1788 62.9255 46.2554 63.3723 47.3785 63.3736H59.6411C60.7642 63.3723 61.8408 62.9255 62.6349 62.1313C63.429 61.3371 63.8755 60.2604 63.8767 59.1373C63.8752 58.0145 63.4284 56.9381 62.6344 56.1442C61.8404 55.3504 60.7639 54.9038 59.6411 54.9025H47.3785ZM21.2943 53.0991H21.2886C21.1327 53.0984 20.9784 53.0671 20.8346 53.0067C20.6909 52.9464 20.5604 52.8583 20.4507 52.7474C20.341 52.6366 20.2543 52.5053 20.1954 52.3609C20.1366 52.2165 20.1067 52.0619 20.1077 51.906L20.1293 47.2708C20.1321 46.6174 20.6072 46.1085 21.3209 46.0906C21.4769 46.0912 21.6311 46.1226 21.7749 46.183C21.9187 46.2433 22.0491 46.3314 22.1588 46.4422C22.2685 46.5531 22.3553 46.6844 22.4141 46.8288C22.473 46.9732 22.5028 47.1278 22.5018 47.2837L22.4803 51.9189C22.4788 52.2325 22.3531 52.5326 22.1309 52.7538C21.9087 52.975 21.6079 53.0991 21.2943 53.0991Z" fill="#003276"/>
<path d="M21.3324 47.2793C20.7802 47.2794 20.2437 47.0948 19.8085 46.7549C19.3732 46.415 19.0641 45.9392 18.9304 45.4034L18.8528 45.0944C18.8028 44.8948 18.799 44.6865 18.8417 44.4852C18.8844 44.284 18.9723 44.0951 19.0989 43.933C19.2255 43.7708 19.3874 43.6397 19.5723 43.5495C19.7572 43.4593 19.9602 43.4124 20.1659 43.4125H22.4983C22.704 43.4124 22.907 43.4593 23.0919 43.5495C23.2767 43.6397 23.4386 43.7708 23.5652 43.933C23.6918 44.0951 23.7798 44.284 23.8225 44.4852C23.8651 44.6865 23.8613 44.8948 23.8114 45.0944L23.7338 45.4034C23.6001 45.9391 23.2911 46.4148 22.856 46.7547C22.4209 47.0946 21.8846 47.2793 21.3324 47.2793Z" fill="#6D6158"/>
<path d="M21.3317 48.466C20.5145 48.467 19.7205 48.1942 19.0764 47.6912C18.4323 47.1882 17.9753 46.484 17.7782 45.6909L17.7013 45.3818C17.5101 44.6185 17.6783 43.8243 18.1628 43.2033C18.6472 42.5823 19.3774 42.2265 20.1652 42.2265H22.4975C23.2853 42.2265 24.0155 42.5816 24.5 43.2033C24.9844 43.8243 25.1526 44.6185 24.9614 45.3818L24.8845 45.6909C24.6877 46.484 24.2308 47.1883 23.5868 47.6913C22.9428 48.1943 22.1489 48.4671 21.3317 48.466ZM20.1659 44.5998L20.0035 44.8068L20.0804 45.1159C20.2241 45.6909 20.7388 46.0927 21.3317 46.0927C21.9247 46.0927 22.4393 45.6909 22.5831 45.1159L22.66 44.8068L22.4975 44.5998H20.1659ZM19.4012 40.2133C19.2453 40.2134 19.091 40.1827 18.9469 40.1231C18.8029 40.0635 18.6721 39.9761 18.5619 39.8659C18.4517 39.7557 18.3642 39.6249 18.3046 39.4809C18.245 39.3368 18.2144 39.1825 18.2145 39.0266C18.2145 38.5882 17.416 38.5882 17.416 39.0266C17.416 39.3413 17.291 39.6432 17.0684 39.8657C16.8459 40.0883 16.544 40.2133 16.2293 40.2133C15.9146 40.2133 15.6128 40.0883 15.3902 39.8657C15.1677 39.6432 15.0427 39.3413 15.0427 39.0266C15.0427 37.4986 16.2861 36.2551 17.8156 36.2551C19.3451 36.2551 20.5885 37.4986 20.5885 39.0266C20.5883 39.3414 20.4632 39.6432 20.2405 39.8658C20.0179 40.0883 19.716 40.2133 19.4012 40.2133ZM26.3795 40.2133C26.2236 40.2134 26.0693 40.1827 25.9253 40.1231C25.7813 40.0635 25.6504 39.9761 25.5402 39.8659C25.43 39.7557 25.3426 39.6249 25.283 39.4809C25.2234 39.3368 25.1928 39.1825 25.1929 39.0266C25.1929 38.5882 24.3943 38.5882 24.3943 39.0266C24.3943 39.3413 24.2693 39.6432 24.0468 39.8657C23.8242 40.0883 23.5224 40.2133 23.2077 40.2133C22.8929 40.2133 22.5911 40.0883 22.3686 39.8657C22.146 39.6432 22.021 39.3413 22.021 39.0266C22.022 38.2916 22.3145 37.587 22.8343 37.0674C23.3542 36.5478 24.0589 36.2557 24.7939 36.2551C25.5289 36.2559 26.2335 36.5481 26.7534 37.0676C27.2732 37.5872 27.5657 38.2917 27.5669 39.0266C27.5667 39.3414 27.4415 39.6432 27.2189 39.8658C26.9962 40.0883 26.6943 40.2133 26.3795 40.2133ZM53.5102 64.962C53.3543 64.9621 53.2 64.9315 53.0559 64.8719C52.9119 64.8123 52.7811 64.7249 52.6709 64.6146C52.5607 64.5044 52.4732 64.3736 52.4136 64.2296C52.354 64.0856 52.3234 63.9312 52.3235 63.7753V54.4992C52.3235 54.1844 52.4485 53.8826 52.6711 53.6601C52.8936 53.4375 53.1954 53.3125 53.5102 53.3125C53.8249 53.3125 54.1267 53.4375 54.3493 53.6601C54.5718 53.8826 54.6968 54.1844 54.6968 54.4992V63.7753C54.6969 63.9312 54.6663 64.0856 54.6067 64.2296C54.5471 64.3736 54.4597 64.5044 54.3495 64.6146C54.2393 64.7249 54.1084 64.8123 53.9644 64.8719C53.8204 64.9315 53.666 64.9621 53.5102 64.962Z" fill="#003276"/>
<path d="M58.5155 43.1767L49.8445 34.5057C48.8278 33.489 47.4487 32.9177 46.0107 32.9177C44.5728 32.9177 43.1937 33.489 42.1769 34.5057C41.1601 35.5225 40.5889 36.9016 40.5889 38.3396C40.5889 39.7775 41.1601 41.1566 42.1769 42.1734L50.8472 50.8444C51.3506 51.3479 51.9483 51.7473 52.6061 52.0198C53.264 52.2923 53.969 52.4325 54.681 52.4325C55.393 52.4325 56.0981 52.2923 56.7559 52.0198C57.4137 51.7473 58.0114 51.3479 58.5148 50.8444C59.0185 50.341 59.418 49.7434 59.6906 49.0856C59.9632 48.4278 60.1036 47.7227 60.1036 47.0107C60.1037 46.2987 59.9635 45.5936 59.691 44.9357C59.4185 44.2779 59.0191 43.6802 58.5155 43.1767Z" fill="#FFD833"/>
<path d="M54.681 53.6151C53.8132 53.617 52.9536 53.4473 52.1516 53.1159C51.3496 52.7844 50.621 52.2978 50.0077 51.6838L41.3374 43.0114C40.7217 42.3994 40.2337 41.6714 39.9014 40.8694C39.5691 40.0675 39.3993 39.2076 39.4018 38.3395C39.4018 36.575 40.0897 34.9154 41.3374 33.6677C42.5852 32.4192 44.2455 31.7321 46.0107 31.7321C47.776 31.7321 49.4356 32.4199 50.684 33.6677L59.3543 42.3387C59.9698 42.9507 60.4578 43.6788 60.79 44.4807C61.1223 45.2826 61.2922 46.1425 61.2899 47.0105C61.2922 47.8789 61.1223 48.7391 60.7901 49.5413C60.4578 50.3436 59.9698 51.0721 59.3543 51.6846C58.7408 52.2982 58.0122 52.7846 57.2102 53.1159C56.4082 53.4472 55.5487 53.6169 54.681 53.6151ZM46.01 34.1047C45.4536 34.1032 44.9023 34.212 44.3882 34.425C43.8741 34.6379 43.4074 34.9507 43.015 35.3452C42.6202 35.7374 42.3073 36.204 42.0942 36.7179C41.8811 37.2319 41.7722 37.7831 41.7737 38.3395C41.7737 39.4708 42.2143 40.5332 43.0143 41.3338L51.6853 50.0063C52.4805 50.7989 53.5575 51.2439 54.6803 51.2439C55.8031 51.2439 56.8801 50.7989 57.6753 50.0063C58.0698 49.6137 58.3825 49.1468 58.5954 48.6326C58.8084 48.1184 58.9173 47.5671 58.9159 47.0105C58.9173 46.4542 58.8084 45.9031 58.5955 45.3891C58.3825 44.8752 58.0698 44.4085 57.6753 44.0162L49.005 35.3452C48.6127 34.9505 48.146 34.6376 47.6319 34.4247C47.1178 34.2117 46.5665 34.103 46.01 34.1047Z" fill="#003276"/>
<path d="M47.0659 47.1414C46.8311 47.1416 46.6015 47.0722 46.4063 46.9418C46.211 46.8115 46.0589 46.6261 45.969 46.4092C45.8792 46.1923 45.8558 45.9536 45.9017 45.7234C45.9477 45.4932 46.0609 45.2818 46.2271 45.116L52.7864 38.5559C52.8965 38.4458 53.0273 38.3584 53.1712 38.2988C53.3151 38.2392 53.4694 38.2085 53.6252 38.2085C53.7809 38.2085 53.9352 38.2392 54.0791 38.2988C54.223 38.3584 54.3538 38.4458 54.4639 38.5559C54.5741 38.6661 54.6615 38.7968 54.7211 38.9408C54.7807 39.0847 54.8114 39.2389 54.8114 39.3947C54.8114 39.5505 54.7807 39.7047 54.7211 39.8487C54.6615 39.9926 54.5741 40.1233 54.4639 40.2335L47.9046 46.7935C47.7947 46.9041 47.664 46.9917 47.5201 47.0514C47.3761 47.1111 47.2217 47.1417 47.0659 47.1414Z" fill="#003276"/>
<path d="M58.5155 43.1767L49.8445 34.5057C48.8278 33.489 47.4487 32.9177 46.0107 32.9177C44.5728 32.9177 43.1937 33.489 42.1769 34.5057C41.1601 35.5225 40.5889 36.9016 40.5889 38.3396C40.5889 39.7775 41.1601 41.1566 42.1769 42.1734L50.8472 50.8444C51.3506 51.3479 51.9483 51.7473 52.6061 52.0198C53.264 52.2923 53.969 52.4325 54.681 52.4325C55.393 52.4325 56.0981 52.2923 56.7559 52.0198C57.4137 51.7473 58.0114 51.3479 58.5148 50.8444C59.0185 50.341 59.418 49.7434 59.6906 49.0856C59.9632 48.4278 60.1036 47.7227 60.1036 47.0107C60.1037 46.2987 59.9635 45.5936 59.691 44.9357C59.4185 44.2779 59.0191 43.6802 58.5155 43.1767Z" fill="#FFD833"/>
<path d="M54.681 53.6151C53.8132 53.617 52.9536 53.4473 52.1516 53.1159C51.3496 52.7844 50.621 52.2978 50.0077 51.6838L41.3374 43.0114C40.7217 42.3994 40.2337 41.6714 39.9014 40.8694C39.5691 40.0675 39.3993 39.2076 39.4018 38.3395C39.4018 36.575 40.0897 34.9154 41.3374 33.6677C42.5852 32.4192 44.2455 31.7321 46.0107 31.7321C47.776 31.7321 49.4356 32.4199 50.684 33.6677L59.3543 42.3387C59.9698 42.9507 60.4578 43.6788 60.79 44.4807C61.1223 45.2826 61.2922 46.1425 61.2899 47.0105C61.2922 47.8789 61.1223 48.7391 60.7901 49.5413C60.4578 50.3436 59.9698 51.0721 59.3543 51.6846C58.7408 52.2982 58.0122 52.7846 57.2102 53.1159C56.4082 53.4472 55.5487 53.6169 54.681 53.6151ZM46.01 34.1047C45.4536 34.1032 44.9023 34.212 44.3882 34.425C43.8741 34.6379 43.4074 34.9507 43.015 35.3452C42.6202 35.7374 42.3073 36.204 42.0942 36.7179C41.8811 37.2319 41.7722 37.7831 41.7737 38.3395C41.7737 39.4708 42.2143 40.5332 43.0143 41.3338L51.6853 50.0063C52.4805 50.7989 53.5575 51.2439 54.6803 51.2439C55.8031 51.2439 56.8801 50.7989 57.6753 50.0063C58.0698 49.6137 58.3825 49.1468 58.5954 48.6326C58.8084 48.1184 58.9173 47.5671 58.9159 47.0105C58.9173 46.4542 58.8084 45.9031 58.5955 45.3891C58.3825 44.8752 58.0698 44.4085 57.6753 44.0162L49.005 35.3452C48.6127 34.9505 48.146 34.6376 47.6319 34.4247C47.1178 34.2117 46.5665 34.103 46.01 34.1047Z" fill="#003276"/>
<path d="M47.0659 47.1414C46.8311 47.1416 46.6015 47.0722 46.4063 46.9418C46.211 46.8115 46.0589 46.6261 45.969 46.4092C45.8792 46.1923 45.8558 45.9536 45.9017 45.7234C45.9477 45.4932 46.0609 45.2818 46.2271 45.116L52.7864 38.5559C52.8965 38.4458 53.0273 38.3584 53.1712 38.2988C53.3151 38.2392 53.4694 38.2085 53.6252 38.2085C53.7809 38.2085 53.9352 38.2392 54.0791 38.2988C54.223 38.3584 54.3538 38.4458 54.4639 38.5559C54.5741 38.6661 54.6615 38.7968 54.7211 38.9408C54.7807 39.0847 54.8114 39.2389 54.8114 39.3947C54.8114 39.5505 54.7807 39.7047 54.7211 39.8487C54.6615 39.9926 54.5741 40.1233 54.4639 40.2335L47.9046 46.7935C47.7947 46.9041 47.664 46.9917 47.5201 47.0514C47.3761 47.1111 47.2217 47.1417 47.0659 47.1414Z" fill="#003276"/>
</svg>
